  0
SECTION
  2
HEADER
  9
$ACADVER
  1
AC1027
  9
$ACADMAINTVER
 70
   105
  9
$DWGCODEPAGE
  3
ANSI_1252
  9
$REQUIREDVERSIONS
160
                 0
  9
$COMMENTS
  1
File was created by Cadenas
  9
$CUSTOMPROPERTYTAG
  1
NB
  9
$CUSTOMPROPERTY
  1
AB11AH-HC
  9
$CUSTOMPROPERTYTAG
  1
NN
  9
$CUSTOMPROPERTY
  1
AB Series - Process Sealed Subminiature Pushbuttons
  9
$CUSTOMPROPERTYTAG
  1
NT
  9
$CUSTOMPROPERTY
  1

  9
$CUSTOMPROPERTYTAG
  1
NBSYN
  9
$CUSTOMPROPERTY
  1
$PN.
  9
$CUSTOMPROPERTYTAG
  1
LINA
  9
$CUSTOMPROPERTY
  1
AB11AH-HC
  9
$CUSTOMPROPERTYTAG
  1
CATALOG
  9
$CUSTOMPROPERTY
  1
NKK Switches
  9
$CUSTOMPROPERTYTAG
  1
PN
  9
$CUSTOMPROPERTY
  1
AB11AH-HC
  9
$CUSTOMPROPERTYTAG
  1
SRS
  9
$CUSTOMPROPERTY
  1
AB
  9
$CUSTOMPROPERTYTAG
  1
PLS
  9
$CUSTOMPROPERTY
  1
1 - SPST/SPDT
  9
$CUSTOMPROPERTYTAG
  1
CRCTS
  9
$CUSTOMPROPERTY
  1
1 - OFF/(ON)
  9
$CUSTOMPROPERTYTAG
  1
PLNGRS
  9
$CUSTOMPROPERTY
  1
A - .213" (5.4mm) Long
  9
$CUSTOMPROPERTYTAG
  1
TRMNLS
  9
$CUSTOMPROPERTY
  1
H - Right Angle with Bracket
  9
$CUSTOMPROPERTYTAG
  1
CAPS
  9
$CUSTOMPROPERTY
  1
H - .295" (7.5mm) Diameter
  9
$CUSTOMPROPERTYTAG
  1
CCLR
  9
$CUSTOMPROPERTY
  1
C - Red
  9
$CUSTOMPROPERTYTAG
  1
OCHR
  9
$CUSTOMPROPERTY
  1
Download pdf
  9
$CUSTOMPROPERTYTAG
  1
COMPANY
  9
$CUSTOMPROPERTY
  1
nkkswitches
  9
$INSBASE
 10
0.0
 20
0.0
 30
0.0
  9
$EXTMIN
 10
1.000000000000000E+20
 20
1.000000000000000E+20
 30
1.000000000000000E+20
  9
$EXTMAX
 10
-1.000000000000000E+20
 20
-1.000000000000000E+20
 30
-1.000000000000000E+20
  9
$LIMMIN
 10
0.0
 20
0.0
  9
$LIMMAX
 10
12.0
 20
9.0
  9
$ORTHOMODE
 70
     0
  9
$REGENMODE
 70
     1
  9
$FILLMODE
 70
     1
  9
$QTEXTMODE
 70
     0
  9
$MIRRTEXT
 70
     1
  9
$LTSCALE
 40
1.0
  9
$ATTMODE
 70
     1
  9
$TEXTSIZE
 40
0.2
  9
$TRACEWID
 40
0.05
  9
$TEXTSTYLE
  7
Standard
  9
$CLAYER
  8
0
  9
$CELTYPE
  6
ByLayer
  9
$CECOLOR
 62
   256
  9
$CELTSCALE
 40
1.0
  9
$DISPSILH
 70
     0
  9
$DIMSCALE
 40
1.0
  9
$DIMASZ
 40
0.18
  9
$DIMEXO
 40
0.0625
  9
$DIMDLI
 40
0.38
  9
$DIMRND
 40
0.0
  9
$DIMDLE
 40
0.0
  9
$DIMEXE
 40
0.18
  9
$DIMTP
 40
0.0
  9
$DIMTM
 40
0.0
  9
$DIMTXT
 40
0.18
  9
$DIMCEN
 40
0.09
  9
$DIMTSZ
 40
0.0
  9
$DIMTOL
 70
     0
  9
$DIMLIM
 70
     0
  9
$DIMTIH
 70
     1
  9
$DIMTOH
 70
     1
  9
$DIMSE1
 70
     0
  9
$DIMSE2
 70
     0
  9
$DIMTAD
 70
     0
  9
$DIMZIN
 70
     0
  9
$DIMBLK
  1

  9
$DIMASO
 70
     1
  9
$DIMSHO
 70
     1
  9
$DIMPOST
  1

  9
$DIMAPOST
  1

  9
$DIMALT
 70
     0
  9
$DIMALTD
 70
     2
  9
$DIMALTF
 40
25.4
  9
$DIMLFAC
 40
1.0
  9
$DIMTOFL
 70
     0
  9
$DIMTVP
 40
0.0
  9
$DIMTIX
 70
     0
  9
$DIMSOXD
 70
     0
  9
$DIMSAH
 70
     0
  9
$DIMBLK1
  1

  9
$DIMBLK2
  1

  9
$DIMSTYLE
  2
Standard
  9
$DIMCLRD
 70
     0
  9
$DIMCLRE
 70
     0
  9
$DIMCLRT
 70
     0
  9
$DIMTFAC
 40
1.0
  9
$DIMGAP
 40
0.09
  9
$DIMJUST
 70
     0
  9
$DIMSD1
 70
     0
  9
$DIMSD2
 70
     0
  9
$DIMTOLJ
 70
     1
  9
$DIMTZIN
 70
     0
  9
$DIMALTZ
 70
     0
  9
$DIMALTTZ
 70
     0
  9
$DIMUPT
 70
     0
  9
$DIMDEC
 70
     4
  9
$DIMTDEC
 70
     4
  9
$DIMALTU
 70
     2
  9
$DIMALTTD
 70
     2
  9
$DIMTXSTY
  7
Standard
  9
$DIMAUNIT
 70
     0
  9
$DIMADEC
 70
     0
  9
$DIMALTRND
 40
0.0
  9
$DIMAZIN
 70
     0
  9
$DIMDSEP
 70
    46
  9
$DIMATFIT
 70
     3
  9
$DIMFRAC
 70
     0
  9
$DIMLDRBLK
  1

  9
$DIMLUNIT
 70
     2
  9
$DIMLWD
 70
    -2
  9
$DIMLWE
 70
    -2
  9
$DIMTMOVE
 70
     0
  9
$DIMFXL
 40
1.0
  9
$DIMFXLON
 70
     0
  9
$DIMJOGANG
 40
0.7853981633974483
  9
$DIMTFILL
 70
     0
  9
$DIMTFILLCLR
 70
     0
  9
$DIMARCSYM
 70
     0
  9
$DIMLTYPE
  6

  9
$DIMLTEX1
  6

  9
$DIMLTEX2
  6

  9
$DIMTXTDIRECTION
 70
     0
  9
$LUNITS
 70
     2
  9
$LUPREC
 70
     4
  9
$SKETCHINC
 40
0.1
  9
$FILLETRAD
 40
0.5
  9
$AUNITS
 70
     0
  9
$AUPREC
 70
     0
  9
$MENU
  1
.
  9
$ELEVATION
 40
0.0
  9
$PELEVATION
 40
0.0
  9
$THICKNESS
 40
0.0
  9
$LIMCHECK
 70
     0
  9
$CHAMFERA
 40
0.0
  9
$CHAMFERB
 40
0.0
  9
$CHAMFERC
 40
0.0
  9
$CHAMFERD
 40
0.0
  9
$SKPOLY
 70
     0
  9
$TDCREATE
 40
2459201.290930058
  9
$TDUCREATE
 40
2459201.249263391
  9
$TDUPDATE
 40
2459201.290930243
  9
$TDUUPDATE
 40
2459201.249263576
  9
$TDINDWG
 40
0.0000000116
  9
$TDUSRTIMER
 40
0.0000000116
  9
$USRTIMER
 70
     1
  9
$ANGBASE
 50
0.0
  9
$ANGDIR
 70
     0
  9
$PDMODE
 70
     0
  9
$PDSIZE
 40
0.0
  9
$PLINEWID
 40
0.0
  9
$SPLFRAME
 70
     0
  9
$SPLINETYPE
 70
     6
  9
$SPLINESEGS
 70
     8
  9
$HANDSEED
  5
1A6
  9
$SURFTAB1
 70
     6
  9
$SURFTAB2
 70
     6
  9
$SURFTYPE
 70
     6
  9
$SURFU
 70
     6
  9
$SURFV
 70
     6
  9
$UCSBASE
  2

  9
$UCSNAME
  2

  9
$UCSORG
 10
0.0
 20
0.0
 30
0.0
  9
$UCSXDIR
 10
1.0
 20
0.0
 30
0.0
  9
$UCSYDIR
 10
0.0
 20
1.0
 30
0.0
  9
$UCSORTHOREF
  2

  9
$UCSORTHOVIEW
 70
     0
  9
$UCSORGTOP
 10
0.0
 20
0.0
 30
0.0
  9
$UCSORGBOTTOM
 10
0.0
 20
0.0
 30
0.0
  9
$UCSORGLEFT
 10
0.0
 20
0.0
 30
0.0
  9
$UCSORGRIGHT
 10
0.0
 20
0.0
 30
0.0
  9
$UCSORGFRONT
 10
0.0
 20
0.0
 30
0.0
  9
$UCSORGBACK
 10
0.0
 20
0.0
 30
0.0
  9
$PUCSBASE
  2

  9
$PUCSNAME
  2

  9
$PUCSORG
 10
0.0
 20
0.0
 30
0.0
  9
$PUCSXDIR
 10
1.0
 20
0.0
 30
0.0
  9
$PUCSYDIR
 10
0.0
 20
1.0
 30
0.0
  9
$PUCSORTHOREF
  2

  9
$PUCSORTHOVIEW
 70
     0
  9
$PUCSORGTOP
 10
0.0
 20
0.0
 30
0.0
  9
$PUCSORGBOTTOM
 10
0.0
 20
0.0
 30
0.0
  9
$PUCSORGLEFT
 10
0.0
 20
0.0
 30
0.0
  9
$PUCSORGRIGHT
 10
0.0
 20
0.0
 30
0.0
  9
$PUCSORGFRONT
 10
0.0
 20
0.0
 30
0.0
  9
$PUCSORGBACK
 10
0.0
 20
0.0
 30
0.0
  9
$USERI1
 70
     0
  9
$USERI2
 70
     0
  9
$USERI3
 70
     0
  9
$USERI4
 70
     0
  9
$USERI5
 70
     0
  9
$USERR1
 40
0.0
  9
$USERR2
 40
0.0
  9
$USERR3
 40
0.0
  9
$USERR4
 40
0.0
  9
$USERR5
 40
0.0
  9
$WORLDVIEW
 70
     1
  9
$SHADEDGE
 70
     3
  9
$SHADEDIF
 70
    70
  9
$TILEMODE
 70
     1
  9
$MAXACTVP
 70
    64
  9
$PINSBASE
 10
0.0
 20
0.0
 30
0.0
  9
$PLIMCHECK
 70
     0
  9
$PEXTMIN
 10
1.000000000000000E+20
 20
1.000000000000000E+20
 30
1.000000000000000E+20
  9
$PEXTMAX
 10
-1.000000000000000E+20
 20
-1.000000000000000E+20
 30
-1.000000000000000E+20
  9
$PLIMMIN
 10
0.0
 20
0.0
  9
$PLIMMAX
 10
12.0
 20
9.0
  9
$UNITMODE
 70
     0
  9
$VISRETAIN
 70
     1
  9
$PLINEGEN
 70
     0
  9
$PSLTSCALE
 70
     1
  9
$TREEDEPTH
 70
  3020
  9
$CMLSTYLE
  2
Standard
  9
$CMLJUST
 70
     0
  9
$CMLSCALE
 40
1.0
  9
$PROXYGRAPHICS
 70
     1
  9
$MEASUREMENT
 70
     0
  9
$CELWEIGHT
370
    -1
  9
$ENDCAPS
280
     0
  9
$JOINSTYLE
280
     0
  9
$LWDISPLAY
290
     0
  9
$INSUNITS
 70
     1
  9
$HYPERLINKBASE
  1

  9
$STYLESHEET
  1

  9
$XEDIT
290
     1
  9
$CEPSNTYPE
380
     0
  9
$PSTYLEMODE
290
     1
  9
$FINGERPRINTGUID
  2
{C833E071-B42F-42E4-B469-BCC86657D8E4}
  9
$VERSIONGUID
  2
{FAEB1C32-E019-11D5-929B-00C0DF256EC4}
  9
$EXTNAMES
290
     1
  9
$PSVPSCALE
 40
0.0
  9
$OLESTARTUP
290
     0
  9
$SORTENTS
280
   127
  9
$INDEXCTL
280
     0
  9
$HIDETEXT
280
     1
  9
$XCLIPFRAME
280
     2
  9
$HALOGAP
280
     0
  9
$OBSCOLOR
 70
   257
  9
$OBSLTYPE
280
     0
  9
$INTERSECTIONDISPLAY
280
     0
  9
$INTERSECTIONCOLOR
 70
   257
  9
$DIMASSOC
280
     2
  9
$PROJECTNAME
  1

  9
$CAMERADISPLAY
290
     0
  9
$LENSLENGTH
 40
50.0
  9
$CAMERAHEIGHT
 40
0.0
  9
$STEPSPERSEC
 40
2.0
  9
$STEPSIZE
 40
6.0
  9
$3DDWFPREC
 40
2.0
  9
$PSOLWIDTH
 40
0.25
  9
$PSOLHEIGHT
 40
4.0
  9
$LOFTANG1
 40
1.570796326794897
  9
$LOFTANG2
 40
1.570796326794897
  9
$LOFTMAG1
 40
0.0
  9
$LOFTMAG2
 40
0.0
  9
$LOFTPARAM
 70
     7
  9
$LOFTNORMALS
280
     1
  9
$LATITUDE
 40
37.795
  9
$LONGITUDE
 40
-122.394
  9
$NORTHDIRECTION
 40
0.0
  9
$TIMEZONE
 70
 -8000
  9
$LIGHTGLYPHDISPLAY
280
     1
  9
$TILEMODELIGHTSYNCH
280
     1
  9
$CMATERIAL
347
44
  9
$SOLIDHIST
280
     0
  9
$SHOWHIST
280
     1
  9
$DWFFRAME
280
     2
  9
$DGNFRAME
280
     2
  9
$REALWORLDSCALE
290
     1
  9
$INTERFERECOLOR
 62
   256
  9
$CSHADOW
280
     0
  9
$SHADOWPLANELOCATION
 40
0.0
  0
ENDSEC
  0
SECTION
  2
CLASSES
  0
CLASS
  1
ACDBDICTIONARYWDFLT
  2
AcDbDictionaryWithDefault
  3
ObjectDBX Classes
 90
        0
 91
        4
280
     0
281
     0
  0
CLASS
  1
VISUALSTYLE
  2
AcDbVisualStyle
  3
ObjectDBX Classes
 90
     4095
 91
        4
280
     0
281
     0
  0
CLASS
  1
MATERIAL
  2
AcDbMaterial
  3
ObjectDBX Classes
 90
     1153
 91
        4
280
     0
281
     0
  0
CLASS
  1
SCALE
  2
AcDbScale
  3
ObjectDBX Classes
 90
     1153
 91
        4
280
     0
281
     0
  0
CLASS
  1
TABLESTYLE
  2
AcDbTableStyle
  3
ObjectDBX Classes
 90
     4095
 91
        4
280
     0
281
     0
  0
CLASS
  1
MLEADERSTYLE
  2
AcDbMLeaderStyle
  3
ACDB_MLEADERSTYLE_CLASS
 90
     4095
 91
        4
280
     0
281
     0
  0
CLASS
  1
SUN
  2
AcDbSun
  3
SCENEOE
 90
     1153
 91
        4
280
     0
281
     0
  0
CLASS
  1
DICTIONARYVAR
  2
AcDbDictionaryVar
  3
ObjectDBX Classes
 90
        0
 91
        4
280
     0
281
     0
  0
CLASS
  1
CELLSTYLEMAP
  2
AcDbCellStyleMap
  3
ObjectDBX Classes
 90
     1152
 91
        4
280
     0
281
     0
  0
ENDSEC
  0
SECTION
  2
TABLES
  0
TABLE
  2
VPORT
  5
8
330
0
100
AcDbSymbolTable
 70
     1
  0
VPORT
  5
29
330
8
100
AcDbSymbolTableRecord
100
AcDbViewportTableRecord
  2
*Active
 70
     0
 10
0.0
 20
0.0
 11
1.0
 21
1.0
 12
4.226190476190475
 22
-4.392209523809523
 13
0.0
 23
0.0
 14
0.5
 24
0.5
 15
0.5
 25
0.5
 16
0.0
 26
0.0
 36
1.0
 17
0.0
 27
0.0
 37
0.0
 40
10.75857142857143
 41
0.8379503386004512
 42
50.0
 43
0.0
 44
0.0
 50
0.0
 51
0.0
 71
     0
 72
   100
 73
     1
 74
     3
 75
     0
 76
     0
 77
     0
 78
     0
281
     0
 65
     1
110
0.0
120
0.0
130
0.0
111
1.0
121
0.0
131
0.0
112
0.0
122
1.0
132
0.0
 79
     0
146
0.0
348
2F
 60
     3
 61
     5
292
     1
282
     1
141
0.0
142
0.0
 63
   250
361
6D
  0
ENDTAB
  0
TABLE
  2
LTYPE
  5
5
330
0
100
AcDbSymbolTable
 70
     3
  0
LTYPE
  5
14
330
5
100
AcDbSymbolTableRecord
100
AcDbLinetypeTableRecord
  2
ByBlock
 70
     0
  3

 72
    65
 73
     0
 40
0.0
  0
LTYPE
  5
15
330
5
100
AcDbSymbolTableRecord
100
AcDbLinetypeTableRecord
  2
ByLayer
 70
     0
  3

 72
    65
 73
     0
 40
0.0
  0
LTYPE
  5
16
330
5
100
AcDbSymbolTableRecord
100
AcDbLinetypeTableRecord
  2
Continuous
 70
     0
  3
Solid line
 72
    65
 73
     0
 40
0.0
  0
LTYPE
  5
97
330
5
100
AcDbSymbolTableRecord
100
AcDbLinetypeTableRecord
  2
Dashed
 70
     0
  3

 72
    65
 73
     2
 40
2.0
 49
1.0
 74
     0
 49
-1.0
 74
     0
  0
LTYPE
  5
A1
330
5
100
AcDbSymbolTableRecord
100
AcDbLinetypeTableRecord
  2
Center
 70
     0
  3

 72
    65
 73
     4
 40
1.5
 49
0.45
 74
     0
 49
-0.5
 74
     0
 49
0.05
 74
     0
 49
-0.5
 74
     0
  0
ENDTAB
  0
TABLE
  2
LAYER
  5
2
330
0
100
AcDbSymbolTable
 70
     7
  0
LAYER
  5
10
330
2
100
AcDbSymbolTableRecord
100
AcDbLayerTableRecord
  2
0
 70
     0
 62
     7
  6
Continuous
370
    -3
390
F
347
46
348
0
  0
LAYER
  5
6E
330
2
100
AcDbSymbolTableRecord
100
AcDbLayerTableRecord
  2
AM_6
 70
     0
 62
    -2
  6
Continuous
370
    35
390
F
347
46
348
0
  0
LAYER
  5
98
330
2
100
AcDbSymbolTableRecord
100
AcDbLayerTableRecord
  2
AM_9
 70
     0
 62
     6
  6
Dashed
370
    25
390
F
347
46
348
0
  0
LAYER
  5
A2
330
2
100
AcDbSymbolTableRecord
100
AcDbLayerTableRecord
  2
AM_7
 70
     0
 62
     7
  6
Center
370
    25
390
F
347
46
348
0
  0
LAYER
  5
AB
330
2
100
AcDbSymbolTableRecord
100
AcDbLayerTableRecord
  2
AM_0
 70
     0
 62
     7
  6
Continuous
370
    50
390
F
347
46
348
0
  0
LAYER
  5
B2
330
2
100
AcDbSymbolTableRecord
100
AcDbLayerTableRecord
  2
AM_4
 70
     0
 62
     3
  6
Continuous
370
    25
390
F
347
46
348
0
  0
LAYER
  5
18B
330
2
100
AcDbSymbolTableRecord
100
AcDbLayerTableRecord
  2
2d ConnectionPoints
 70
     0
 62
     7
  6
Continuous
370
    50
390
F
347
46
348
0
  0
ENDTAB
  0
TABLE
  2
STYLE
  5
3
330
0
100
AcDbSymbolTable
 70
     1
  0
STYLE
  5
11
330
3
100
AcDbSymbolTableRecord
100
AcDbTextStyleTableRecord
  2
Standard
 70
     0
 40
0.0
 41
1.0
 50
0.0
 71
     0
 42
0.2
  3
txt
  4

  0
ENDTAB
  0
TABLE
  2
VIEW
  5
6
330
0
100
AcDbSymbolTable
 70
     0
  0
ENDTAB
  0
TABLE
  2
UCS
  5
7
330
0
100
AcDbSymbolTable
 70
     0
  0
ENDTAB
  0
TABLE
  2
APPID
  5
9
330
0
100
AcDbSymbolTable
 70
     1
  0
APPID
  5
12
330
9
100
AcDbSymbolTableRecord
100
AcDbRegAppTableRecord
  2
ACAD
 70
     0
  0
ENDTAB
  0
TABLE
  2
DIMSTYLE
  5
A
330
0
100
AcDbSymbolTable
 70
     1
100
AcDbDimStyleTable
  0
DIMSTYLE
105
27
330
A
100
AcDbSymbolTableRecord
100
AcDbDimStyleTableRecord
  2
Standard
 70
     0
178
     0
340
11
  0
ENDTAB
  0
TABLE
  2
BLOCK_RECORD
  5
1
330
0
100
AcDbSymbolTable
 70
     6
  0
BLOCK_RECORD
  5
1F
330
1
100
AcDbSymbolTableRecord
100
AcDbBlockTableRecord
  2
*Model_Space
340
22
 70
     0
280
     1
281
     0
  0
BLOCK_RECORD
  5
1B
330
1
100
AcDbSymbolTableRecord
100
AcDbBlockTableRecord
  2
*Paper_Space
340
1E
 70
     0
280
     1
281
     0
  0
BLOCK_RECORD
  5
23
330
1
100
AcDbSymbolTableRecord
100
AcDbBlockTableRecord
  2
*Paper_Space0
340
26
 70
     0
280
     1
281
     0
  0
BLOCK_RECORD
  5
84
330
1
100
AcDbSymbolTableRecord
100
AcDbBlockTableRecord
  2
1_AB11H_terminals_0_in_AB11AH_HC_4
340
0
102
{BLKREFS
331
85
102
}
 70
     0
280
     1
281
     0
  0
BLOCK_RECORD
  5
B5
330
1
100
AcDbSymbolTableRecord
100
AcDbBlockTableRecord
  2
2_AB1H_bracket_ra_0_in_AB11AH_HC_4
340
0
102
{BLKREFS
331
B6
102
}
 70
     0
280
     1
281
     0
  0
BLOCK_RECORD
  5
103
330
1
100
AcDbSymbolTableRecord
100
AcDbBlockTableRecord
  2
3_AB1AP_HC_caps_0_in_AB11AH_HC_4
340
0
102
{BLKREFS
331
104
102
}
 70
     0
280
     1
281
     0
  0
BLOCK_RECORD
  5
126
330
1
100
AcDbSymbolTableRecord
100
AcDbBlockTableRecord
  2
4_AB11A_plungers_0_in_AB11AH_HC_4
340
0
102
{BLKREFS
331
127
102
}
 70
     0
280
     1
281
     0
  0
BLOCK_RECORD
  5
142
330
1
100
AcDbSymbolTableRecord
100
AcDbBlockTableRecord
  2
5_AB11H_body_0_in_AB11AH_HC_4
340
0
102
{BLKREFS
331
143
102
}
 70
     0
280
     1
281
     0
  0
ENDTAB
  0
ENDSEC
  0
SECTION
  2
BLOCKS
  0
BLOCK
  5
20
330
1F
100
AcDbEntity
  8
0
100
AcDbBlockBegin
  2
*Model_Space
 70
     0
 10
0.0
 20
0.0
 30
0.0
  3
*Model_Space
  1

  0
ENDBLK
  5
21
330
1F
100
AcDbEntity
  8
0
100
AcDbBlockEnd
  0
BLOCK
  5
1C
330
1B
100
AcDbEntity
 67
     1
  8
0
100
AcDbBlockBegin
  2
*Paper_Space
 70
     0
 10
0.0
 20
0.0
 30
0.0
  3
*Paper_Space
  1

  0
ENDBLK
  5
1D
330
1B
100
AcDbEntity
 67
     1
  8
0
100
AcDbBlockEnd
  0
BLOCK
  5
24
330
23
100
AcDbEntity
  8
0
100
AcDbBlockBegin
  2
*Paper_Space0
 70
     0
 10
0.0
 20
0.0
 30
0.0
  3
*Paper_Space0
  1

  0
ENDBLK
  5
25
330
23
100
AcDbEntity
  8
0
100
AcDbBlockEnd
  0
BLOCK
  5
86
330
84
100
AcDbEntity
  8
0
100
AcDbBlockBegin
  2
1_AB11H_terminals_0_in_AB11AH_HC_4
 70
     2
 10
0.0
 20
0.0
 30
0.0
  3
1_AB11H_terminals_0_in_AB11AH_HC_4
  1

  0
ATTDEF
  5
88
330
84
100
AcDbEntity
  8
AM_6
100
AcDbText
 10
5.12
 20
0.3816000000000001
 30
0.0
 40
0.5
  1
AB11H-terminals
100
AcDbAttributeDefinition
  3

  2
NB
 70
     8
280
     0
  0
ATTDEF
  5
89
330
84
100
AcDbEntity
  8
AM_6
100
AcDbText
 10
5.12
 20
-0.1183999999999999
 30
0.0
 40
0.5
  1
AB Series - Process Sealed Subminiature Pushbuttons -terminals
100
AcDbAttributeDefinition
  3

  2
NN
 70
     8
280
     0
  0
ATTDEF
  5
8A
330
84
100
AcDbEntity
  8
AM_6
100
AcDbText
 10
5.12
 20
-0.6184
 30
0.0
 40
0.5
  1

100
AcDbAttributeDefinition
  3

  2
NT
 70
     8
280
     0
  0
ATTDEF
  5
8B
330
84
100
AcDbEntity
  8
AM_6
100
AcDbText
 10
5.12
 20
-1.1184
 30
0.0
 40
0.5
  1
$PN.-terminals
100
AcDbAttributeDefinition
  3

  2
NBSYN
 70
     8
280
     0
  0
ATTDEF
  5
8C
330
84
100
AcDbEntity
  8
AM_6
100
AcDbText
 10
5.12
 20
-1.6184
 30
0.0
 40
0.5
  1
AB11H-terminals
100
AcDbAttributeDefinition
  3

  2
LINA
 70
     8
280
     0
  0
ATTDEF
  5
8D
330
84
100
AcDbEntity
  8
AM_6
100
AcDbText
 10
5.12
 20
-2.1184
 30
0.0
 40
0.5
  1
NKK Switches
100
AcDbAttributeDefinition
  3

  2
CATALOG
 70
     8
280
     0
  0
ATTDEF
  5
8E
330
84
100
AcDbEntity
  8
AM_6
100
AcDbText
 10
5.12
 20
-2.6184
 30
0.0
 40
0.5
  1
AB11H
100
AcDbAttributeDefinition
  3

  2
PN
 70
     8
280
     0
  0
ATTDEF
  5
8F
330
84
100
AcDbEntity
  8
AM_6
100
AcDbText
 10
5.12
 20
-3.1184
 30
0.0
 40
0.5
  1
AB
100
AcDbAttributeDefinition
  3

  2
SRS
 70
     8
280
     0
  0
ATTDEF
  5
90
330
84
100
AcDbEntity
  8
AM_6
100
AcDbText
 10
5.12
 20
-3.6184
 30
0.0
 40
0.5
  1
1 - SPST/SPDT
100
AcDbAttributeDefinition
  3

  2
PLS
 70
     8
280
     0
  0
ATTDEF
  5
91
330
84
100
AcDbEntity
  8
AM_6
100
AcDbText
 10
5.12
 20
-4.118399999999999
 30
0.0
 40
0.5
  1
1 - OFF/(ON)
100
AcDbAttributeDefinition
  3

  2
CRCTS
 70
     8
280
     0
  0
ATTDEF
  5
92
330
84
100
AcDbEntity
  8
AM_6
100
AcDbText
 10
5.12
 20
-4.618399999999999
 30
0.0
 40
0.5
  1
H - Right Angle with Bracket
100
AcDbAttributeDefinition
  3

  2
TRMNLS
 70
     8
280
     0
  0
ATTDEF
  5
93
330
84
100
AcDbEntity
  8
AM_6
100
AcDbText
 10
5.12
 20
-5.118399999999999
 30
0.0
 40
0.5
  1
nkkswitches
100
AcDbAttributeDefinition
  3

  2
COMPANY
 70
     8
280
     0
  0
ATTDEF
  5
94
330
84
100
AcDbEntity
  8
AM_6
100
AcDbText
 10
5.12
 20
-5.618399999999999
 30
0.0
 40
0.5
  1
{$CADENAS_DATA\23d-libs\nkkswitches\pushbuttons\ab\parts\ab_terminals.prj},242 {VTYP=3D},{NB=AB11H-terminals},{LINA=AB11H-terminals},{NN=AB Series - Process Sealed Subminiature Pushbuttons -terminals},{DATE=18.08.2020 09:17:43},{GEOMDATE=08.12.2008 08:02:
100
AcDbAttributeDefinition
  3

  2
PSOL_0
 70
     9
280
     0
  0
ATTDEF
  5
95
330
84
100
AcDbEntity
  8
AM_6
100
AcDbText
 10
5.12
 20
-6.118399999999999
 30
0.0
 40
0.5
  1
00},{VERSION=},{LINEID=10},{WBVAR=PLS,CRCTS,TRMNLS},{WBNUMERIC=}  {NB=AB11H-terminals},{LINA=AB11H-terminals},{KT=DUMMY},{PN=AB11H},{SRS=AB},{PLS=1},{CRCTS=1},{CRCTSALG= '1', '1 - OFF/(ON)', '5', '5 - ON/(ON)' },{TRMNLS=H},{TRMNLSALG= 'P','P - Straight', 
100
AcDbAttributeDefinition
  3

  2
PSOL_1
 70
     9
280
     0
  0
ATTDEF
  5
96
330
84
100
AcDbEntity
  8
AM_6
100
AcDbText
 10
5.12
 20
-6.618399999999999
 30
0.0
 40
0.5
  1
'B','B - Straight with Bracket', 'B1','B1 - Straight with Inline Bracket', 'H','H - Right Angle with Bracket', 'V','V - Vertical with Bracket', 'V1','V1 - Vertical with Inline Bracket' }
100
AcDbAttributeDefinition
  3

  2
PSOL_2
 70
     9
280
     0
  0
ARC
  5
99
330
84
100
AcDbEntity
  8
AM_9
100
AcDbCircle
 10
0.1
 20
0.3690000000000001
 30
0.0
 40
0.012
100
AcDbArc
 50
179.9999999999997
 51
359.9999999999997
  0
ARC
  5
9A
330
84
100
AcDbEntity
  8
AM_9
100
AcDbCircle
 10
-0.1
 20
0.3690000000000001
 30
0.0
 40
0.012
100
AcDbArc
 50
179.9999999999997
 51
359.9999999999997
  0
LINE
  5
9B
330
84
100
AcDbEntity
  8
AM_9
100
AcDbLine
 10
-0.112
 20
0.319
 30
0.0
 11
-0.112
 21
0.2850000000000001
 31
0.0
  0
LINE
  5
9C
330
84
100
AcDbEntity
  8
AM_9
100
AcDbLine
 10
-0.088
 20
0.2850000000000001
 30
0.0
 11
-0.088
 21
0.319
 31
0.0
  0
LINE
  5
9D
330
84
100
AcDbEntity
  8
AM_9
100
AcDbLine
 10
0.088
 20
0.319
 30
0.0
 11
0.088
 21
0.2850000000000001
 31
0.0
  0
LINE
  5
9E
330
84
100
AcDbEntity
  8
AM_9
100
AcDbLine
 10
0.112
 20
0.2850000000000001
 30
0.0
 11
0.112
 21
0.319
 31
0.0
  0
LINE
  5
9F
330
84
100
AcDbEntity
  8
AM_9
100
AcDbLine
 10
0.12
 20
0.285
 30
0.0
 11
-0.12
 21
0.285
 31
0.0
  0
LINE
  5
A0
330
84
100
AcDbEntity
  8
AM_9
100
AcDbLine
 10
0.12
 20
0.284
 30
0.0
 11
-0.12
 21
0.284
 31
0.0
  0
LINE
  5
A3
330
84
100
AcDbEntity
  8
AM_7
100
AcDbLine
 10
0.1
 20
0.282
 30
0.0
 11
0.1
 21
0.348
 31
0.0
  0
LINE
  5
A4
330
84
100
AcDbEntity
  8
AM_7
100
AcDbLine
 10
0.0868
 20
0.345
 30
0.0
 11
0.1132
 21
0.345
 31
0.0
  0
LINE
  5
A5
330
84
100
AcDbEntity
  8
AM_7
100
AcDbLine
 10
-0.1
 20
0.282
 30
0.0
 11
-0.1
 21
0.348
 31
0.0
  0
LINE
  5
A6
330
84
100
AcDbEntity
  8
AM_7
100
AcDbLine
 10
-0.1132
 20
0.345
 30
0.0
 11
-0.0868
 21
0.345
 31
0.0
  0
LINE
  5
A7
330
84
100
AcDbEntity
  8
AM_7
100
AcDbLine
 10
-0.1126
 20
0.3690000000000001
 30
0.0
 11
-0.0874
 21
0.3690000000000001
 31
0.0
  0
LINE
  5
A8
330
84
100
AcDbEntity
  8
AM_7
100
AcDbLine
 10
-0.1
 20
0.3564000000000001
 30
0.0
 11
-0.1
 21
0.3816000000000001
 31
0.0
  0
LINE
  5
A9
330
84
100
AcDbEntity
  8
AM_7
100
AcDbLine
 10
0.0874
 20
0.3690000000000001
 30
0.0
 11
0.1126
 21
0.3690000000000001
 31
0.0
  0
LINE
  5
AA
330
84
100
AcDbEntity
  8
AM_7
100
AcDbLine
 10
0.1
 20
0.3564000000000001
 30
0.0
 11
0.1
 21
0.3816000000000001
 31
0.0
  0
LINE
  5
AC
330
84
100
AcDbEntity
  8
AM_0
100
AcDbLine
 10
0.088
 20
0.3690000000000001
 30
0.0
 11
0.088
 21
0.319
 31
0.0
  0
LINE
  5
AD
330
84
100
AcDbEntity
  8
AM_0
100
AcDbLine
 10
0.112
 20
0.319
 30
0.0
 11
0.112
 21
0.3690000000000001
 31
0.0
  0
ARC
  5
AE
330
84
100
AcDbEntity
  8
AM_0
100
AcDbCircle
 10
0.1
 20
0.369
 30
0.0
 40
0.012
100
AcDbArc
 50
0.0
 51
179.9999999999995
  0
LINE
  5
AF
330
84
100
AcDbEntity
  8
AM_0
100
AcDbLine
 10
-0.112
 20
0.3690000000000001
 30
0.0
 11
-0.112
 21
0.319
 31
0.0
  0
LINE
  5
B0
330
84
100
AcDbEntity
  8
AM_0
100
AcDbLine
 10
-0.088
 20
0.319
 30
0.0
 11
-0.088
 21
0.3690000000000001
 31
0.0
  0
ARC
  5
B1
330
84
100
AcDbEntity
  8
AM_0
100
AcDbCircle
 10
-0.1
 20
0.369
 30
0.0
 40
0.012
100
AcDbArc
 50
0.0
 51
179.9999999999995
  0
LINE
  5
B3
330
84
100
AcDbEntity
  8
AM_4
100
AcDbLine
 10
-0.112
 20
0.345
 30
0.0
 11
-0.088
 21
0.345
 31
0.0
  0
LINE
  5
B4
330
84
100
AcDbEntity
  8
AM_4
100
AcDbLine
 10
0.088
 20
0.345
 30
0.0
 11
0.112
 21
0.345
 31
0.0
  0
ENDBLK
  5
87
330
84
100
AcDbEntity
  8
0
100
AcDbBlockEnd
  0
BLOCK
  5
B7
330
B5
100
AcDbEntity
  8
0
100
AcDbBlockBegin
  2
2_AB1H_bracket_ra_0_in_AB11AH_HC_4
 70
     2
 10
0.0
 20
0.0
 30
0.0
  3
2_AB1H_bracket_ra_0_in_AB11AH_HC_4
  1

  0
ATTDEF
  5
B9
330
B5
100
AcDbEntity
  8
AM_6
100
AcDbText
 10
5.189
 20
0.3035
 30
0.0
 40
0.5
  1
AB1H-bracket_ra
100
AcDbAttributeDefinition
  3

  2
NB
 70
     8
280
     0
  0
ATTDEF
  5
BA
330
B5
100
AcDbEntity
  8
AM_6
100
AcDbText
 10
5.189
 20
-0.1965
 30
0.0
 40
0.5
  1
AB Series - Process Sealed Subminiature Pushbuttons -bracket_ra
100
AcDbAttributeDefinition
  3

  2
NN
 70
     8
280
     0
  0
ATTDEF
  5
BB
330
B5
100
AcDbEntity
  8
AM_6
100
AcDbText
 10
5.189
 20
-0.6965
 30
0.0
 40
0.5
  1

100
AcDbAttributeDefinition
  3

  2
NT
 70
     8
280
     0
  0
ATTDEF
  5
BC
330
B5
100
AcDbEntity
  8
AM_6
100
AcDbText
 10
5.189
 20
-1.1965
 30
0.0
 40
0.5
  1
$PN.-bracket_ra
100
AcDbAttributeDefinition
  3

  2
NBSYN
 70
     8
280
     0
  0
ATTDEF
  5
BD
330
B5
100
AcDbEntity
  8
AM_6
100
AcDbText
 10
5.189
 20
-1.6965
 30
0.0
 40
0.5
  1
AB1H-bracket_ra
100
AcDbAttributeDefinition
  3

  2
LINA
 70
     8
280
     0
  0
ATTDEF
  5
BE
330
B5
100
AcDbEntity
  8
AM_6
100
AcDbText
 10
5.189
 20
-2.1965
 30
0.0
 40
0.5
  1
NKK Switches
100
AcDbAttributeDefinition
  3

  2
CATALOG
 70
     8
280
     0
  0
ATTDEF
  5
BF
330
B5
100
AcDbEntity
  8
AM_6
100
AcDbText
 10
5.189
 20
-2.6965
 30
0.0
 40
0.5
  1
AB1H
100
AcDbAttributeDefinition
  3

  2
PN
 70
     8
280
     0
  0
ATTDEF
  5
C0
330
B5
100
AcDbEntity
  8
AM_6
100
AcDbText
 10
5.189
 20
-3.1965
 30
0.0
 40
0.5
  1
AB
100
AcDbAttributeDefinition
  3

  2
SRS
 70
     8
280
     0
  0
ATTDEF
  5
C1
330
B5
100
AcDbEntity
  8
AM_6
100
AcDbText
 10
5.189
 20
-3.6965
 30
0.0
 40
0.5
  1
1 - SPST/SPDT
100
AcDbAttributeDefinition
  3

  2
PLS
 70
     8
280
     0
  0
ATTDEF
  5
C2
330
B5
100
AcDbEntity
  8
AM_6
100
AcDbText
 10
5.189
 20
-4.1965
 30
0.0
 40
0.5
  1
H - Right Angle with Bracket
100
AcDbAttributeDefinition
  3

  2
TRMNLS
 70
     8
280
     0
  0
ATTDEF
  5
C3
330
B5
100
AcDbEntity
  8
AM_6
100
AcDbText
 10
5.189
 20
-4.6965
 30
0.0
 40
0.5
  1
nkkswitches
100
AcDbAttributeDefinition
  3

  2
COMPANY
 70
     8
280
     0
  0
ATTDEF
  5
C4
330
B5
100
AcDbEntity
  8
AM_6
100
AcDbText
 10
5.189
 20
-5.1965
 30
0.0
 40
0.5
  1
{$CADENAS_DATA\23d-libs\nkkswitches\pushbuttons\ab\parts\ab_bracket_ra.prj},237 {VTYP=3D},{NB=AB1H-bracket_ra},{LINA=AB1H-bracket_ra},{NN=AB Series - Process Sealed Subminiature Pushbuttons -bracket_ra},{DATE=18.08.2020 09:17:43},{GEOMDATE=05.12.2008 13:2
100
AcDbAttributeDefinition
  3

  2
PSOL_0
 70
     9
280
     0
  0
ATTDEF
  5
C5
330
B5
100
AcDbEntity
  8
AM_6
100
AcDbText
 10
5.189
 20
-5.6965
 30
0.0
 40
0.5
  1
2:00},{VERSION=},{LINEID=10},{WBVAR=PLS,TRMNLS},{WBNUMERIC=}  {NB=AB1H-bracket_ra},{LINA=AB1H-bracket_ra},{KT=DUMMY},{PN=AB1H},{SRS=AB},{PLS=1},{TRMNLS=H},{TRMNLSALG= 'P','P - Straight', 'B','B - Straight with Bracket', 'B1','B1 - Straight with Inline Bra
100
AcDbAttributeDefinition
  3

  2
PSOL_1
 70
     9
280
     0
  0
ATTDEF
  5
C6
330
B5
100
AcDbEntity
  8
AM_6
100
AcDbText
 10
5.189
 20
-6.1965
 30
0.0
 40
0.5
  1
cket', 'H','H - Right Angle with Bracket', 'V','V - Vertical with Bracket', 'V1','V1 - Vertical with Inline Bracket' }
100
AcDbAttributeDefinition
  3

  2
PSOL_2
 70
     9
280
     0
  0
LINE
  5
C7
330
B5
100
AcDbEntity
  8
AM_9
100
AcDbLine
 10
-0.099
 20
0.183
 30
0.0
 11
-0.099
 21
0.155
 31
0.0
  0
LINE
  5
C8
330
B5
100
AcDbEntity
  8
AM_9
100
AcDbLine
 10
0.099
 20
0.155
 30
0.0
 11
0.099
 21
0.183
 31
0.0
  0
LINE
  5
C9
330
B5
100
AcDbEntity
  8
AM_9
100
AcDbLine
 10
-0.094
 20
0.183
 30
0.0
 11
-0.111
 21
0.183
 31
0.0
  0
LINE
  5
CA
330
B5
100
AcDbEntity
  8
AM_9
100
AcDbLine
 10
-0.094
 20
0.155
 30
0.0
 11
-0.111
 21
0.155
 31
0.0
  0
LINE
  5
CB
330
B5
100
AcDbEntity
  8
AM_9
100
AcDbLine
 10
-0.111
 20
0.183
 30
0.0
 11
-0.111
 21
0.155
 31
0.0
  0
LINE
  5
CC
330
B5
100
AcDbEntity
  8
AM_9
100
AcDbLine
 10
0.111
 20
0.155
 30
0.0
 11
0.111
 21
0.183
 31
0.0
  0
LINE
  5
CD
330
B5
100
AcDbEntity
  8
AM_9
100
AcDbLine
 10
0.111
 20
0.183
 30
0.0
 11
0.094
 21
0.183
 31
0.0
  0
LINE
  5
CE
330
B5
100
AcDbEntity
  8
AM_9
100
AcDbLine
 10
0.111
 20
0.155
 30
0.0
 11
0.094
 21
0.155
 31
0.0
  0
LINE
  5
CF
330
B5
100
AcDbEntity
  8
AM_9
100
AcDbLine
 10
-0.0942009545340367
 20
0.155
 30
0.0
 11
-0.0942009545340367
 21
0.183
 31
0.0
  0
LINE
  5
D0
330
B5
100
AcDbEntity
  8
AM_9
100
AcDbLine
 10
0.0942009545340367
 20
0.155
 30
0.0
 11
0.0942009545340367
 21
0.183
 31
0.0
  0
LINE
  5
D1
330
B5
100
AcDbEntity
  8
AM_9
100
AcDbLine
 10
0.1062009545340367
 20
0.155
 30
0.0
 11
0.1062009545340367
 21
0.183
 31
0.0
  0
LINE
  5
D2
330
B5
100
AcDbEntity
  8
AM_9
100
AcDbLine
 10
-0.1062009545340366
 20
0.155
 30
0.0
 11
-0.1062009545340366
 21
0.183
 31
0.0
  0
LINE
  5
D3
330
B5
100
AcDbEntity
  8
AM_9
100
AcDbLine
 10
-0.094
 20
0.155
 30
0.0
 11
-0.094
 21
0.183
 31
0.0
  0
LINE
  5
D4
330
B5
100
AcDbEntity
  8
AM_9
100
AcDbLine
 10
-0.106
 20
0.155
 30
0.0
 11
-0.106
 21
0.183
 31
0.0
  0
LINE
  5
D5
330
B5
100
AcDbEntity
  8
AM_9
100
AcDbLine
 10
0.106
 20
0.183
 30
0.0
 11
0.106
 21
0.155
 31
0.0
  0
LINE
  5
D6
330
B5
100
AcDbEntity
  8
AM_9
100
AcDbLine
 10
0.094
 20
0.155
 30
0.0
 11
0.094
 21
0.183
 31
0.0
  0
LINE
  5
D7
330
B5
100
AcDbEntity
  8
AM_9
100
AcDbLine
 10
0.183
 20
0.1989999999999977
 30
0.0
 11
0.183
 21
0.2915
 31
0.0
  0
LINE
  5
D8
330
B5
100
AcDbEntity
  8
AM_9
100
AcDbLine
 10
-0.1829999999999999
 20
0.199
 30
0.0
 11
-0.1829999999999999
 21
0.2915
 31
0.0
  0
LINE
  5
D9
330
B5
100
AcDbEntity
  8
AM_9
100
AcDbLine
 10
0.183
 20
0.042
 30
0.0
 11
0.183
 21
0.1389999999999932
 31
0.0
  0
LINE
  5
DA
330
B5
100
AcDbEntity
  8
AM_9
100
AcDbLine
 10
-0.1829999999999999
 20
0.042
 30
0.0
 11
-0.1829999999999999
 21
0.139
 31
0.0
  0
LINE
  5
DB
330
B5
100
AcDbEntity
  8
AM_9
100
AcDbLine
 10
0.0
 20
0.2915
 30
0.0
 11
0.0
 21
0.3035
 31
0.0
  0
LINE
  5
DC
330
B5
100
AcDbEntity
  8
AM_9
100
AcDbLine
 10
0.02
 20
0.2915
 30
0.0
 11
0.02
 21
0.3035
 31
0.0
  0
LINE
  5
DD
330
B5
100
AcDbEntity
  8
AM_9
100
AcDbLine
 10
0.02
 20
0.3035
 30
0.0
 11
0.0
 21
0.3035
 31
0.0
  0
LINE
  5
DE
330
B5
100
AcDbEntity
  8
AM_9
100
AcDbLine
 10
0.157
 20
0.03
 30
0.0
 11
0.157
 21
0.042
 31
0.0
  0
LINE
  5
DF
330
B5
100
AcDbEntity
  8
AM_9
100
AcDbLine
 10
-0.157
 20
0.03
 30
0.0
 11
-0.157
 21
0.042
 31
0.0
  0
ARC
  5
E0
330
B5
100
AcDbEntity
  8
AM_9
100
AcDbCircle
 10
0.1665
 20
0.1689999999999954
 30
0.0
 40
0.0375
100
AcDbArc
 50
126.8698976458384
 51
233.1301023541617
  0
LINE
  5
E1
330
B5
100
AcDbEntity
  8
AM_9
100
AcDbLine
 10
0.02
 20
0.2985
 30
0.0
 11
0.0
 21
0.2985
 31
0.0
  0
ARC
  5
E2
330
B5
100
AcDbEntity
  8
AM_9
100
AcDbCircle
 10
-0.1665
 20
0.169
 30
0.0
 40
0.0375
100
AcDbArc
 50
306.869897645844
 51
53.13010235415602
  0
LINE
  5
E3
330
B5
100
AcDbEntity
  8
AM_9
100
AcDbLine
 10
-0.177
 20
0.035
 30
0.0
 11
-0.157
 21
0.035
 31
0.0
  0
LINE
  5
E4
330
B5
100
AcDbEntity
  8
AM_9
100
AcDbLine
 10
0.157
 20
0.035
 30
0.0
 11
0.177
 21
0.035
 31
0.0
  0
LINE
  5
E5
330
B5
100
AcDbEntity
  8
AM_9
100
AcDbLine
 10
-0.171
 20
0.199
 30
0.0
 11
-0.171
 21
0.2915
 31
0.0
  0
LINE
  5
E6
330
B5
100
AcDbEntity
  8
AM_9
100
AcDbLine
 10
-0.171
 20
0.042
 30
0.0
 11
-0.171
 21
0.139
 31
0.0
  0
LINE
  5
E7
330
B5
100
AcDbEntity
  8
AM_9
100
AcDbLine
 10
-0.177
 20
0.2915
 30
0.0
 11
0.177
 21
0.2915
 31
0.0
  0
LINE
  5
E8
330
B5
100
AcDbEntity
  8
AM_9
100
AcDbLine
 10
0.171
 20
0.1989999999999977
 30
0.0
 11
0.171
 21
0.2915
 31
0.0
  0
LINE
  5
E9
330
B5
100
AcDbEntity
  8
AM_9
100
AcDbLine
 10
-0.177
 20
0.042
 30
0.0
 11
0.177
 21
0.042
 31
0.0
  0
LINE
  5
EA
330
B5
100
AcDbEntity
  8
AM_9
100
AcDbLine
 10
0.171
 20
0.042
 30
0.0
 11
0.171
 21
0.139
 31
0.0
  0
LINE
  5
EB
330
B5
100
AcDbEntity
  8
AM_9
100
AcDbLine
 10
0.1440000000000029
 20
0.1989999999999977
 30
0.0
 11
0.189
 21
0.199
 31
0.0
  0
LINE
  5
EC
330
B5
100
AcDbEntity
  8
AM_9
100
AcDbLine
 10
-0.189
 20
0.199
 30
0.0
 11
-0.144
 21
0.199
 31
0.0
  0
LINE
  5
ED
330
B5
100
AcDbEntity
  8
AM_9
100
AcDbLine
 10
0.144000000000003
 20
0.1389999999999932
 30
0.0
 11
0.189
 21
0.139
 31
0.0
  0
LINE
  5
EE
330
B5
100
AcDbEntity
  8
AM_9
100
AcDbLine
 10
-0.189
 20
0.139
 30
0.0
 11
-0.144
 21
0.139
 31
0.0
  0
LINE
  5
EF
330
B5
100
AcDbEntity
  8
AM_9
100
AcDbLine
 10
-0.189
 20
0.154
 30
0.0
 11
-0.177
 21
0.154
 31
0.0
  0
LINE
  5
F0
330
B5
100
AcDbEntity
  8
AM_9
100
AcDbLine
 10
-0.189
 20
0.184
 30
0.0
 11
-0.177
 21
0.184
 31
0.0
  0
LINE
  5
F1
330
B5
100
AcDbEntity
  8
AM_9
100
AcDbLine
 10
0.177
 20
0.184
 30
0.0
 11
0.189
 21
0.184
 31
0.0
  0
LINE
  5
F2
330
B5
100
AcDbEntity
  8
AM_9
100
AcDbLine
 10
0.177
 20
0.154
 30
0.0
 11
0.189
 21
0.154
 31
0.0
  0
LINE
  5
F3
330
B5
100
AcDbEntity
  8
AM_9
100
AcDbLine
 10
0.177
 20
0.208
 30
0.0
 11
0.189
 21
0.208
 31
0.0
  0
LINE
  5
F4
330
B5
100
AcDbEntity
  8
AM_9
100
AcDbLine
 10
0.177
 20
0.127
 30
0.0
 11
0.189
 21
0.127
 31
0.0
  0
LINE
  5
F5
330
B5
100
AcDbEntity
  8
AM_9
100
AcDbLine
 10
-0.189
 20
0.208
 30
0.0
 11
-0.177
 21
0.208
 31
0.0
  0
LINE
  5
F6
330
B5
100
AcDbEntity
  8
AM_9
100
AcDbLine
 10
-0.189
 20
0.127
 30
0.0
 11
-0.177
 21
0.127
 31
0.0
  0
LINE
  5
F7
330
B5
100
AcDbEntity
  8
AM_0
100
AcDbLine
 10
0.177
 20
0.042
 30
0.0
 11
0.189
 21
0.042
 31
0.0
  0
LINE
  5
F8
330
B5
100
AcDbEntity
  8
AM_0
100
AcDbLine
 10
-0.189
 20
0.2915
 30
0.0
 11
-0.177
 21
0.2915
 31
0.0
  0
LINE
  5
F9
330
B5
100
AcDbEntity
  8
AM_0
100
AcDbLine
 10
0.177
 20
0.042
 30
0.0
 11
0.177
 21
0.2915
 31
0.0
  0
LINE
  5
FA
330
B5
100
AcDbEntity
  8
AM_0
100
AcDbLine
 10
0.1890000000000001
 20
0.2915
 30
0.0
 11
0.189
 21
0.042
 31
0.0
  0
LINE
  5
FB
330
B5
100
AcDbEntity
  8
AM_0
100
AcDbLine
 10
0.1890000000000001
 20
0.2915
 30
0.0
 11
0.177
 21
0.2915
 31
0.0
  0
LINE
  5
FC
330
B5
100
AcDbEntity
  8
AM_4
100
AcDbLine
 10
-0.189
 20
0.2815
 30
0.0
 11
-0.177
 21
0.2815
 31
0.0
  0
LINE
  5
FD
330
B5
100
AcDbEntity
  8
AM_4
100
AcDbLine
 10
0.177
 20
0.2815
 30
0.0
 11
0.189
 21
0.2815
 31
0.0
  0
LINE
  5
FE
330
B5
100
AcDbEntity
  8
AM_4
100
AcDbLine
 10
0.177
 20
0.052
 30
0.0
 11
0.1890000000000001
 21
0.052
 31
0.0
  0
LINE
  5
FF
330
B5
100
AcDbEntity
  8
AM_4
100
AcDbLine
 10
-0.189
 20
0.052
 30
0.0
 11
-0.177
 21
0.052
 31
0.0
  0
LINE
  5
100
330
B5
100
AcDbEntity
  8
AM_0
100
AcDbLine
 10
-0.189
 20
0.042
 30
0.0
 11
-0.189
 21
0.2915
 31
0.0
  0
LINE
  5
101
330
B5
100
AcDbEntity
  8
AM_0
100
AcDbLine
 10
-0.177
 20
0.042
 30
0.0
 11
-0.189
 21
0.042
 31
0.0
  0
LINE
  5
102
330
B5
100
AcDbEntity
  8
AM_0
100
AcDbLine
 10
-0.177
 20
0.2915
 30
0.0
 11
-0.177
 21
0.042
 31
0.0
  0
ENDBLK
  5
B8
330
B5
100
AcDbEntity
  8
0
100
AcDbBlockEnd
  0
BLOCK
  5
105
330
103
100
AcDbEntity
  8
0
100
AcDbBlockBegin
  2
3_AB1AP_HC_caps_0_in_AB11AH_HC_4
 70
     2
 10
0.0
 20
0.0
 30
0.0
  3
3_AB1AP_HC_caps_0_in_AB11AH_HC_4
  1

  0
ATTDEF
  5
107
330
103
100
AcDbEntity
  8
AM_6
100
AcDbText
 10
5.1475
 20
-0.268
 30
0.0
 40
0.5
  1
AB1AP-HC-caps
100
AcDbAttributeDefinition
  3

  2
NB
 70
     8
280
     0
  0
ATTDEF
  5
108
330
103
100
AcDbEntity
  8
AM_6
100
AcDbText
 10
5.1475
 20
-0.768
 30
0.0
 40
0.5
  1
AB Series - Process Sealed Subminiature Pushbuttons -caps
100
AcDbAttributeDefinition
  3

  2
NN
 70
     8
280
     0
  0
ATTDEF
  5
109
330
103
100
AcDbEntity
  8
AM_6
100
AcDbText
 10
5.1475
 20
-1.268
 30
0.0
 40
0.5
  1

100
AcDbAttributeDefinition
  3

  2
NT
 70
     8
280
     0
  0
ATTDEF
  5
10A
330
103
100
AcDbEntity
  8
AM_6
100
AcDbText
 10
5.1475
 20
-1.768
 30
0.0
 40
0.5
  1
$PN.-caps
100
AcDbAttributeDefinition
  3

  2
NBSYN
 70
     8
280
     0
  0
ATTDEF
  5
10B
330
103
100
AcDbEntity
  8
AM_6
100
AcDbText
 10
5.1475
 20
-2.268
 30
0.0
 40
0.5
  1
AB1AP-HC-caps
100
AcDbAttributeDefinition
  3

  2
LINA
 70
     8
280
     0
  0
ATTDEF
  5
10C
330
103
100
AcDbEntity
  8
AM_6
100
AcDbText
 10
5.1475
 20
-2.768
 30
0.0
 40
0.5
  1
NKK Switches
100
AcDbAttributeDefinition
  3

  2
CATALOG
 70
     8
280
     0
  0
ATTDEF
  5
10D
330
103
100
AcDbEntity
  8
AM_6
100
AcDbText
 10
5.1475
 20
-3.268
 30
0.0
 40
0.5
  1
AB1AP-HC
100
AcDbAttributeDefinition
  3

  2
PN
 70
     8
280
     0
  0
ATTDEF
  5
10E
330
103
100
AcDbEntity
  8
AM_6
100
AcDbText
 10
5.1475
 20
-3.768
 30
0.0
 40
0.5
  1
AB
100
AcDbAttributeDefinition
  3

  2
SRS
 70
     8
280
     0
  0
ATTDEF
  5
10F
330
103
100
AcDbEntity
  8
AM_6
100
AcDbText
 10
5.1475
 20
-4.268
 30
0.0
 40
0.5
  1
1 - SPST/SPDT
100
AcDbAttributeDefinition
  3

  2
PLS
 70
     8
280
     0
  0
ATTDEF
  5
110
330
103
100
AcDbEntity
  8
AM_6
100
AcDbText
 10
5.1475
 20
-4.768
 30
0.0
 40
0.5
  1
A - .213" (5.4mm) Long
100
AcDbAttributeDefinition
  3

  2
PLNGRS
 70
     8
280
     0
  0
ATTDEF
  5
111
330
103
100
AcDbEntity
  8
AM_6
100
AcDbText
 10
5.1475
 20
-5.268
 30
0.0
 40
0.5
  1
P - Straight
100
AcDbAttributeDefinition
  3

  2
TRMNLS
 70
     8
280
     0
  0
ATTDEF
  5
112
330
103
100
AcDbEntity
  8
AM_6
100
AcDbText
 10
5.1475
 20
-5.768
 30
0.0
 40
0.5
  1
H - .295" (7.5mm) Diameter
100
AcDbAttributeDefinition
  3

  2
CAPS
 70
     8
280
     0
  0
ATTDEF
  5
113
330
103
100
AcDbEntity
  8
AM_6
100
AcDbText
 10
5.1475
 20
-6.268
 30
0.0
 40
0.5
  1
C - Red
100
AcDbAttributeDefinition
  3

  2
CCLR
 70
     8
280
     0
  0
ATTDEF
  5
114
330
103
100
AcDbEntity
  8
AM_6
100
AcDbText
 10
5.1475
 20
-6.768
 30
0.0
 40
0.5
  1
nkkswitches
100
AcDbAttributeDefinition
  3

  2
COMPANY
 70
     8
280
     0
  0
ATTDEF
  5
115
330
103
100
AcDbEntity
  8
AM_6
100
AcDbText
 10
5.1475
 20
-7.268
 30
0.0
 40
0.5
  1
{$CADENAS_DATA\23d-libs\nkkswitches\pushbuttons\ab\parts\ab_caps.prj},244 {VTYP=3D},{NB=AB1AP-HC-caps},{LINA=AB1AP-HC-caps},{NN=AB Series - Process Sealed Subminiature Pushbuttons -caps},{DATE=18.08.2020 09:17:43},{GEOMDATE=23.01.2009 00:00:00},{VERSION=}
100
AcDbAttributeDefinition
  3

  2
PSOL_0
 70
     9
280
     0
  0
ATTDEF
  5
116
330
103
100
AcDbEntity
  8
AM_6
100
AcDbText
 10
5.1475
 20
-7.768
 30
0.0
 40
0.5
  1
,{LINEID=10},{WBVAR=PLS,PLNGRS,TRMNLS,CAPS,CCLR},{WBNUMERIC=}  {NB=AB1AP-HC-caps},{LINA=AB1AP-HC-caps},{KT=DUMMY},{PN=AB1AP-HC},{SRS=AB},{PLS=1},{PLNGRS=A},{PLNGRSALG= 'A','A - .213\" (5.4mm) Long', 'B','B - .183\" (4.65mm) Long', 'C','C - .080\" (2.03mm)
100
AcDbAttributeDefinition
  3

  2
PSOL_1
 70
     9
280
     0
  0
ATTDEF
  5
117
330
103
100
AcDbEntity
  8
AM_6
100
AcDbText
 10
5.1475
 20
-8.268
 30
0.0
 40
0.5
  1
 Long' },{TRMNLS=P},{TRMNLSALG= 'P','P - Straight', 'B','B - Straight with Bracket', 'B1','B1 - Straight with Inline Bracket', 'H','H - Right Angle with Bracket', 'V','V - Vertical with Bracket', 'V1','V1 - Vertical with Inline Bracket' },{CAPS=H},{CAPSAL
100
AcDbAttributeDefinition
  3

  2
PSOL_2
 70
     9
280
     0
  0
ATTDEF
  5
118
330
103
100
AcDbEntity
  8
AM_6
100
AcDbText
 10
5.1475
 20
-8.768
 30
0.0
 40
0.5
  1
G= '','w/o Cap', 'F', 'F - .201\" (5.1mm) Diameter', 'H', 'H - .295\" (7.5mm) Diameter' },{CCLR=C},{CCLR1= 'A', 'A - Black', 'B', 'B - White', 'C', 'C - Red' },{CCLRALG= 1.00,0.00,0.00,0.00 }
100
AcDbAttributeDefinition
  3

  2
PSOL_3
 70
     9
280
     0
  0
LINE
  5
119
330
103
100
AcDbEntity
  8
AM_9
100
AcDbLine
 10
-0.05
 20
-0.39
 30
0.0
 11
0.05
 21
-0.39
 31
0.0
  0
LINE
  5
11A
330
103
100
AcDbEntity
  8
AM_9
100
AcDbLine
 10
0.05
 20
-0.39
 30
0.0
 11
0.055
 21
-0.385
 31
0.0
  0
LINE
  5
11B
330
103
100
AcDbEntity
  8
AM_9
100
AcDbLine
 10
-0.055
 20
-0.385
 30
0.0
 11
-0.05
 21
-0.39
 31
0.0
  0
LINE
  5
11C
330
103
100
AcDbEntity
  8
AM_9
100
AcDbLine
 10
-0.055
 20
-0.385
 30
0.0
 11
0.055
 21
-0.385
 31
0.0
  0
LINE
  5
11D
330
103
100
AcDbEntity
  8
AM_9
100
AcDbLine
 10
0.055
 20
-0.385
 30
0.0
 11
0.055
 21
-0.268
 31
0.0
  0
LINE
  5
11E
330
103
100
AcDbEntity
  8
AM_9
100
AcDbLine
 10
-0.055
 20
-0.268
 30
0.0
 11
-0.055
 21
-0.385
 31
0.0
  0
LINE
  5
11F
330
103
100
AcDbEntity
  8
AM_0
100
AcDbLine
 10
-0.1425
 20
-0.425
 30
0.0
 11
0.1425
 21
-0.425
 31
0.0
  0
LINE
  5
120
330
103
100
AcDbEntity
  8
AM_0
100
AcDbLine
 10
0.1425
 20
-0.425
 30
0.0
 11
0.1475
 21
-0.42
 31
0.0
  0
LINE
  5
121
330
103
100
AcDbEntity
  8
AM_0
100
AcDbLine
 10
-0.1475
 20
-0.42
 30
0.0
 11
-0.1425
 21
-0.425
 31
0.0
  0
LINE
  5
122
330
103
100
AcDbEntity
  8
AM_0
100
AcDbLine
 10
-0.1475
 20
-0.2680000000000001
 30
0.0
 11
0.1475
 21
-0.2680000000000001
 31
0.0
  0
LINE
  5
123
330
103
100
AcDbEntity
  8
AM_0
100
AcDbLine
 10
-0.1475
 20
-0.42
 30
0.0
 11
0.1475
 21
-0.42
 31
0.0
  0
LINE
  5
124
330
103
100
AcDbEntity
  8
AM_0
100
AcDbLine
 10
0.1475
 20
-0.42
 30
0.0
 11
0.1475
 21
-0.2680000000000001
 31
0.0
  0
LINE
  5
125
330
103
100
AcDbEntity
  8
AM_0
100
AcDbLine
 10
-0.1475
 20
-0.2680000000000001
 30
0.0
 11
-0.1475
 21
-0.42
 31
0.0
  0
ENDBLK
  5
106
330
103
100
AcDbEntity
  8
0
100
AcDbBlockEnd
  0
BLOCK
  5
128
330
126
100
AcDbEntity
  8
0
100
AcDbBlockBegin
  2
4_AB11A_plungers_0_in_AB11AH_HC_4
 70
     2
 10
0.0
 20
0.0
 30
0.0
  3
4_AB11A_plungers_0_in_AB11AH_HC_4
  1

  0
ATTDEF
  5
12A
330
126
100
AcDbEntity
  8
AM_6
100
AcDbText
 10
5.055
 20
-0.16635
 30
0.0
 40
0.5
  1
AB11A-plungers
100
AcDbAttributeDefinition
  3

  2
NB
 70
     8
280
     0
  0
ATTDEF
  5
12B
330
126
100
AcDbEntity
  8
AM_6
100
AcDbText
 10
5.055
 20
-0.66635
 30
0.0
 40
0.5
  1
AB Series - Process Sealed Subminiature Pushbuttons -plungers
100
AcDbAttributeDefinition
  3

  2
NN
 70
     8
280
     0
  0
ATTDEF
  5
12C
330
126
100
AcDbEntity
  8
AM_6
100
AcDbText
 10
5.055
 20
-1.16635
 30
0.0
 40
0.5
  1

100
AcDbAttributeDefinition
  3

  2
NT
 70
     8
280
     0
  0
ATTDEF
  5
12D
330
126
100
AcDbEntity
  8
AM_6
100
AcDbText
 10
5.055
 20
-1.66635
 30
0.0
 40
0.5
  1
$PN.-plungers
100
AcDbAttributeDefinition
  3

  2
NBSYN
 70
     8
280
     0
  0
ATTDEF
  5
12E
330
126
100
AcDbEntity
  8
AM_6
100
AcDbText
 10
5.055
 20
-2.16635
 30
0.0
 40
0.5
  1
AB11A-plungers
100
AcDbAttributeDefinition
  3

  2
LINA
 70
     8
280
     0
  0
ATTDEF
  5
12F
330
126
100
AcDbEntity
  8
AM_6
100
AcDbText
 10
5.055
 20
-2.66635
 30
0.0
 40
0.5
  1
NKK Switches
100
AcDbAttributeDefinition
  3

  2
CATALOG
 70
     8
280
     0
  0
ATTDEF
  5
130
330
126
100
AcDbEntity
  8
AM_6
100
AcDbText
 10
5.055
 20
-3.16635
 30
0.0
 40
0.5
  1
AB11A
100
AcDbAttributeDefinition
  3

  2
PN
 70
     8
280
     0
  0
ATTDEF
  5
131
330
126
100
AcDbEntity
  8
AM_6
100
AcDbText
 10
5.055
 20
-3.66635
 30
0.0
 40
0.5
  1
AB
100
AcDbAttributeDefinition
  3

  2
SRS
 70
     8
280
     0
  0
ATTDEF
  5
132
330
126
100
AcDbEntity
  8
AM_6
100
AcDbText
 10
5.055
 20
-4.16635
 30
0.0
 40
0.5
  1
1 - SPST/SPDT
100
AcDbAttributeDefinition
  3

  2
PLS
 70
     8
280
     0
  0
ATTDEF
  5
133
330
126
100
AcDbEntity
  8
AM_6
100
AcDbText
 10
5.055
 20
-4.66635
 30
0.0
 40
0.5
  1
1 - OFF/(ON)
100
AcDbAttributeDefinition
  3

  2
CRCTS
 70
     8
280
     0
  0
ATTDEF
  5
134
330
126
100
AcDbEntity
  8
AM_6
100
AcDbText
 10
5.055
 20
-5.16635
 30
0.0
 40
0.5
  1
A - .213" (5.4mm) Long
100
AcDbAttributeDefinition
  3

  2
PLNGRS
 70
     8
280
     0
  0
ATTDEF
  5
135
330
126
100
AcDbEntity
  8
AM_6
100
AcDbText
 10
5.055
 20
-5.66635
 30
0.0
 40
0.5
  1
nkkswitches
100
AcDbAttributeDefinition
  3

  2
COMPANY
 70
     8
280
     0
  0
ATTDEF
  5
136
330
126
100
AcDbEntity
  8
AM_6
100
AcDbText
 10
5.055
 20
-6.16635
 30
0.0
 40
0.5
  1
{$CADENAS_DATA\23d-libs\nkkswitches\pushbuttons\ab\parts\ab_plunger.prj},239 {VTYP=3D},{NB=AB11A-plungers},{LINA=AB11A-plungers},{NN=AB Series - Process Sealed Subminiature Pushbuttons -plungers},{DATE=18.08.2020 09:17:43},{GEOMDATE=01.12.2008 08:36:00},{
100
AcDbAttributeDefinition
  3

  2
PSOL_0
 70
     9
280
     0
  0
ATTDEF
  5
137
330
126
100
AcDbEntity
  8
AM_6
100
AcDbText
 10
5.055
 20
-6.66635
 30
0.0
 40
0.5
  1
VERSION=},{LINEID=10},{WBVAR=PLS,CRCTS,PLNGRS},{WBNUMERIC=}  {NB=AB11A-plungers},{LINA=AB11A-plungers},{KT=DUMMY},{PN=AB11A},{SRS=AB},{PLS=1},{CRCTS=1},{CRCTSALG= '1', '1 - OFF/(ON)', '5', '5 - ON/(ON)' },{PLNGRS=A},{PLNGRSALG= 'A','A - .213\" (5.4mm) Lon
100
AcDbAttributeDefinition
  3

  2
PSOL_1
 70
     9
280
     0
  0
ATTDEF
  5
138
330
126
100
AcDbEntity
  8
AM_6
100
AcDbText
 10
5.055
 20
-7.16635
 30
0.0
 40
0.5
  1
g', 'B','B - .183\" (4.65mm) Long', 'C','C - .080\" (2.03mm) Long' }
100
AcDbAttributeDefinition
  3

  2
PSOL_2
 70
     9
280
     0
  0
LINE
  5
139
330
126
100
AcDbEntity
  8
AM_9
100
AcDbLine
 10
0.055
 20
-0.385
 30
0.0
 11
0.055
 21
-0.2680000000000001
 31
0.0
  0
LINE
  5
13A
330
126
100
AcDbEntity
  8
AM_9
100
AcDbLine
 10
-0.055
 20
-0.2680000000000001
 30
0.0
 11
-0.055
 21
-0.385
 31
0.0
  0
LINE
  5
13B
330
126
100
AcDbEntity
  8
AM_9
100
AcDbLine
 10
-0.055
 20
-0.385
 30
0.0
 11
0.055
 21
-0.385
 31
0.0
  0
LINE
  5
13C
330
126
100
AcDbEntity
  8
AM_9
100
AcDbLine
 10
-0.05
 20
-0.39
 30
0.0
 11
0.05
 21
-0.39
 31
0.0
  0
LINE
  5
13D
330
126
100
AcDbEntity
  8
AM_9
100
AcDbLine
 10
0.05
 20
-0.39
 30
0.0
 11
0.055
 21
-0.385
 31
0.0
  0
LINE
  5
13E
330
126
100
AcDbEntity
  8
AM_9
100
AcDbLine
 10
-0.055
 20
-0.385
 30
0.0
 11
-0.05
 21
-0.39
 31
0.0
  0
LINE
  5
13F
330
126
100
AcDbEntity
  8
AM_7
100
AcDbLine
 10
0.0
 20
-0.43285
 30
0.0
 11
0.0
 21
-0.16635
 31
0.0
  0
LINE
  5
140
330
126
100
AcDbEntity
  8
AM_0
100
AcDbLine
 10
0.055
 20
-0.2680000000000001
 30
0.0
 11
0.055
 21
-0.177
 31
0.0
  0
LINE
  5
141
330
126
100
AcDbEntity
  8
AM_0
100
AcDbLine
 10
-0.055
 20
-0.177
 30
0.0
 11
-0.055
 21
-0.2680000000000001
 31
0.0
  0
ENDBLK
  5
129
330
126
100
AcDbEntity
  8
0
100
AcDbBlockEnd
  0
BLOCK
  5
144
330
142
100
AcDbEntity
  8
0
100
AcDbBlockBegin
  2
5_AB11H_body_0_in_AB11AH_HC_4
 70
     2
 10
0.0
 20
0.0
 30
0.0
  3
5_AB11H_body_0_in_AB11AH_HC_4
  1

  0
ATTDEF
  5
146
330
142
100
AcDbEntity
  8
AM_6
100
AcDbText
 10
5.193
 20
0.339
 30
0.0
 40
0.5
  1
AB11H-body
100
AcDbAttributeDefinition
  3

  2
NB
 70
     8
280
     0
  0
ATTDEF
  5
147
330
142
100
AcDbEntity
  8
AM_6
100
AcDbText
 10
5.193
 20
-0.161
 30
0.0
 40
0.5
  1
AB Series - Process Sealed Subminiature Pushbuttons -body
100
AcDbAttributeDefinition
  3

  2
NN
 70
     8
280
     0
  0
ATTDEF
  5
148
330
142
100
AcDbEntity
  8
AM_6
100
AcDbText
 10
5.193
 20
-0.661
 30
0.0
 40
0.5
  1

100
AcDbAttributeDefinition
  3

  2
NT
 70
     8
280
     0
  0
ATTDEF
  5
149
330
142
100
AcDbEntity
  8
AM_6
100
AcDbText
 10
5.193
 20
-1.161
 30
0.0
 40
0.5
  1
$PN.-body
100
AcDbAttributeDefinition
  3

  2
NBSYN
 70
     8
280
     0
  0
ATTDEF
  5
14A
330
142
100
AcDbEntity
  8
AM_6
100
AcDbText
 10
5.193
 20
-1.661
 30
0.0
 40
0.5
  1
AB11H-body
100
AcDbAttributeDefinition
  3

  2
LINA
 70
     8
280
     0
  0
ATTDEF
  5
14B
330
142
100
AcDbEntity
  8
AM_6
100
AcDbText
 10
5.193
 20
-2.161
 30
0.0
 40
0.5
  1
NKK Switches
100
AcDbAttributeDefinition
  3

  2
CATALOG
 70
     8
280
     0
  0
ATTDEF
  5
14C
330
142
100
AcDbEntity
  8
AM_6
100
AcDbText
 10
5.193
 20
-2.661
 30
0.0
 40
0.5
  1
AB11H
100
AcDbAttributeDefinition
  3

  2
PN
 70
     8
280
     0
  0
ATTDEF
  5
14D
330
142
100
AcDbEntity
  8
AM_6
100
AcDbText
 10
5.193
 20
-3.161
 30
0.0
 40
0.5
  1
AB
100
AcDbAttributeDefinition
  3

  2
SRS
 70
     8
280
     0
  0
ATTDEF
  5
14E
330
142
100
AcDbEntity
  8
AM_6
100
AcDbText
 10
5.193
 20
-3.661
 30
0.0
 40
0.5
  1
1 - SPST/SPDT
100
AcDbAttributeDefinition
  3

  2
PLS
 70
     8
280
     0
  0
ATTDEF
  5
14F
330
142
100
AcDbEntity
  8
AM_6
100
AcDbText
 10
5.193
 20
-4.161
 30
0.0
 40
0.5
  1
1 - OFF/(ON)
100
AcDbAttributeDefinition
  3

  2
CRCTS
 70
     8
280
     0
  0
ATTDEF
  5
150
330
142
100
AcDbEntity
  8
AM_6
100
AcDbText
 10
5.193
 20
-4.661
 30
0.0
 40
0.5
  1
H - Right Angle with Bracket
100
AcDbAttributeDefinition
  3

  2
TRMNLS
 70
     8
280
     0
  0
ATTDEF
  5
151
330
142
100
AcDbEntity
  8
AM_6
100
AcDbText
 10
5.193
 20
-5.161
 30
0.0
 40
0.5
  1
nkkswitches
100
AcDbAttributeDefinition
  3

  2
COMPANY
 70
     8
280
     0
  0
ATTDEF
  5
152
330
142
100
AcDbEntity
  8
AM_6
100
AcDbText
 10
5.193
 20
-5.661
 30
0.0
 40
0.5
  1
{$CADENAS_DATA\23d-libs\nkkswitches\pushbuttons\ab\parts\ab_body.prj},227 {VTYP=3D},{NB=AB11H-body},{LINA=AB11H-body},{NN=AB Series - Process Sealed Subminiature Pushbuttons -body},{DATE=18.08.2020 09:17:42},{GEOMDATE=04.12.2008 11:10:00},{VERSION=},{LINE
100
AcDbAttributeDefinition
  3

  2
PSOL_0
 70
     9
280
     0
  0
ATTDEF
  5
153
330
142
100
AcDbEntity
  8
AM_6
100
AcDbText
 10
5.193
 20
-6.161
 30
0.0
 40
0.5
  1
ID=10},{WBVAR=PLS,CRCTS,TRMNLS},{WBNUMERIC=}  {NB=AB11H-body},{LINA=AB11H-body},{KT=DUMMY},{PN=AB11H},{SRS=AB},{PLS=1},{CRCTS=1},{CRCTSALG= '1', '1 - OFF/(ON)', '5', '5 - ON/(ON)' },{TRMNLS=H},{TRMNLSALG= 'P','P - Straight', 'B','B - Straight with Bracket
100
AcDbAttributeDefinition
  3

  2
PSOL_1
 70
     9
280
     0
  0
ATTDEF
  5
154
330
142
100
AcDbEntity
  8
AM_6
100
AcDbText
 10
5.193
 20
-6.661
 30
0.0
 40
0.5
  1
', 'B1','B1 - Straight with Inline Bracket', 'H','H - Right Angle with Bracket', 'V','V - Vertical with Bracket', 'V1','V1 - Vertical with Inline Bracket' }
100
AcDbAttributeDefinition
  3

  2
PSOL_2
 70
     9
280
     0
  0
LINE
  5
155
330
142
100
AcDbEntity
  8
AM_9
100
AcDbLine
 10
-0.162
 20
0.03
 30
0.0
 11
-0.162
 21
0.0
 31
0.0
  0
LINE
  5
156
330
142
100
AcDbEntity
  8
AM_9
100
AcDbLine
 10
0.162
 20
0.03
 30
0.0
 11
0.162
 21
0.0
 31
0.0
  0
LINE
  5
157
330
142
100
AcDbEntity
  8
AM_9
100
AcDbLine
 10
0.15
 20
0.0
 30
0.0
 11
0.15
 21
0.03
 31
0.0
  0
LINE
  5
158
330
142
100
AcDbEntity
  8
AM_9
100
AcDbLine
 10
-0.15
 20
0.03
 30
0.0
 11
-0.15
 21
0.0
 31
0.0
  0
LINE
  5
159
330
142
100
AcDbEntity
  8
AM_9
100
AcDbLine
 10
-0.15
 20
0.03
 30
0.0
 11
-0.1545
 21
0.03
 31
0.0
  0
LINE
  5
15A
330
142
100
AcDbEntity
  8
AM_9
100
AcDbLine
 10
0.1545
 20
0.03
 30
0.0
 11
0.15
 21
0.03
 31
0.0
  0
LINE
  5
15B
330
142
100
AcDbEntity
  8
AM_9
100
AcDbLine
 10
0.098
 20
-0.169
 30
0.0
 11
0.098
 21
-0.177
 31
0.0
  0
LINE
  5
15C
330
142
100
AcDbEntity
  8
AM_9
100
AcDbLine
 10
0.116
 20
-0.169
 30
0.0
 11
0.098
 21
-0.169
 31
0.0
  0
LINE
  5
15D
330
142
100
AcDbEntity
  8
AM_9
100
AcDbLine
 10
-0.177
 20
0.2076
 30
0.0
 11
-0.189
 21
0.2076
 31
0.0
  0
LINE
  5
15E
330
142
100
AcDbEntity
  8
AM_9
100
AcDbLine
 10
-0.177
 20
0.1276
 30
0.0
 11
-0.189
 21
0.1276
 31
0.0
  0
LINE
  5
15F
330
142
100
AcDbEntity
  8
AM_9
100
AcDbLine
 10
0.1890000000000001
 20
0.1276
 30
0.0
 11
0.177
 21
0.1276
 31
0.0
  0
LINE
  5
160
330
142
100
AcDbEntity
  8
AM_9
100
AcDbLine
 10
0.189
 20
0.2076
 30
0.0
 11
0.177
 21
0.2076
 31
0.0
  0
LINE
  5
161
330
142
100
AcDbEntity
  8
AM_9
100
AcDbLine
 10
0.177
 20
0.319
 30
0.0
 11
0.162
 21
0.319
 31
0.0
  0
LINE
  5
162
330
142
100
AcDbEntity
  8
AM_9
100
AcDbLine
 10
-0.162
 20
0.319
 30
0.0
 11
-0.177
 21
0.319
 31
0.0
  0
LINE
  5
163
330
142
100
AcDbEntity
  8
AM_9
100
AcDbLine
 10
0.162
 20
0.314
 30
0.0
 11
-0.162
 21
0.314
 31
0.0
  0
LINE
  5
164
330
142
100
AcDbEntity
  8
AM_0
100
AcDbLine
 10
0.147
 20
0.339
 30
0.0
 11
0.177
 21
0.339
 31
0.0
  0
LINE
  5
165
330
142
100
AcDbEntity
  8
AM_0
100
AcDbLine
 10
-0.177
 20
0.339
 30
0.0
 11
-0.147
 21
0.339
 31
0.0
  0
LINE
  5
166
330
142
100
AcDbEntity
  8
AM_0
100
AcDbLine
 10
-0.147
 20
0.319
 30
0.0
 11
-0.147
 21
0.339
 31
0.0
  0
LINE
  5
167
330
142
100
AcDbEntity
  8
AM_0
100
AcDbLine
 10
0.147
 20
0.319
 30
0.0
 11
0.147
 21
0.339
 31
0.0
  0
LINE
  5
168
330
142
100
AcDbEntity
  8
AM_0
100
AcDbLine
 10
-0.189
 20
0.2076
 30
0.0
 11
-0.193
 21
0.2076
 31
0.0
  0
LINE
  5
169
330
142
100
AcDbEntity
  8
AM_0
100
AcDbLine
 10
-0.189
 20
0.1276
 30
0.0
 11
-0.193
 21
0.1276
 31
0.0
  0
LINE
  5
16A
330
142
100
AcDbEntity
  8
AM_0
100
AcDbLine
 10
-0.193
 20
0.2076
 30
0.0
 11
-0.193
 21
0.1276
 31
0.0
  0
LINE
  5
16B
330
142
100
AcDbEntity
  8
AM_0
100
AcDbLine
 10
0.193
 20
0.1276
 30
0.0
 11
0.1890000000000001
 21
0.1276
 31
0.0
  0
LINE
  5
16C
330
142
100
AcDbEntity
  8
AM_0
100
AcDbLine
 10
0.193
 20
0.2076
 30
0.0
 11
0.189
 21
0.2076
 31
0.0
  0
LINE
  5
16D
330
142
100
AcDbEntity
  8
AM_0
100
AcDbLine
 10
0.193
 20
0.2076
 30
0.0
 11
0.193
 21
0.1276
 31
0.0
  0
LINE
  5
16E
330
142
100
AcDbEntity
  8
AM_0
100
AcDbLine
 10
-0.1764999999999999
 20
0.0
 30
0.0
 11
0.1764999999999999
 21
0.0
 31
0.0
  0
LINE
  5
16F
330
142
100
AcDbEntity
  8
AM_0
100
AcDbLine
 10
-0.108
 20
-0.167
 30
0.0
 11
-0.108
 21
0.0
 31
0.0
  0
LINE
  5
170
330
142
100
AcDbEntity
  8
AM_0
100
AcDbLine
 10
-0.118
 20
-0.167
 30
0.0
 11
-0.118
 21
0.0
 31
0.0
  0
LINE
  5
171
330
142
100
AcDbEntity
  8
AM_0
100
AcDbLine
 10
-0.1079999999999999
 20
-0.177
 30
0.0
 11
-0.118
 21
-0.167
 31
0.0
  0
LINE
  5
172
330
142
100
AcDbEntity
  8
AM_0
100
AcDbLine
 10
-0.108
 20
-0.167
 30
0.0
 11
-0.113
 21
-0.172
 31
0.0
  0
LINE
  5
173
330
142
100
AcDbEntity
  8
AM_0
100
AcDbLine
 10
0.108
 20
-0.177
 30
0.0
 11
-0.1079999999999999
 21
-0.177
 31
0.0
  0
LINE
  5
174
330
142
100
AcDbEntity
  8
AM_0
100
AcDbLine
 10
0.118
 20
-0.167
 30
0.0
 11
0.108
 21
-0.177
 31
0.0
  0
LINE
  5
175
330
142
100
AcDbEntity
  8
AM_0
100
AcDbLine
 10
0.108
 20
-0.167
 30
0.0
 11
-0.108
 21
-0.167
 31
0.0
  0
LINE
  5
176
330
142
100
AcDbEntity
  8
AM_0
100
AcDbLine
 10
0.113
 20
-0.172
 30
0.0
 11
0.108
 21
-0.167
 31
0.0
  0
LINE
  5
177
330
142
100
AcDbEntity
  8
AM_0
100
AcDbLine
 10
0.118
 20
-0.167
 30
0.0
 11
0.118
 21
0.0
 31
0.0
  0
LINE
  5
178
330
142
100
AcDbEntity
  8
AM_0
100
AcDbLine
 10
0.108
 20
-0.167
 30
0.0
 11
0.108
 21
0.0
 31
0.0
  0
LINE
  5
179
330
142
100
AcDbEntity
  8
AM_0
100
AcDbLine
 10
-0.1764999999999999
 20
0.03
 30
0.0
 11
-0.1545
 21
0.03
 31
0.0
  0
LINE
  5
17A
330
142
100
AcDbEntity
  8
AM_0
100
AcDbLine
 10
-0.1764999999999999
 20
0.03
 30
0.0
 11
-0.1764999999999999
 21
0.0
 31
0.0
  0
LINE
  5
17B
330
142
100
AcDbEntity
  8
AM_0
100
AcDbLine
 10
-0.162
 20
0.339
 30
0.0
 11
-0.162
 21
0.03
 31
0.0
  0
LINE
  5
17C
330
142
100
AcDbEntity
  8
AM_0
100
AcDbLine
 10
-0.177
 20
0.042
 30
0.0
 11
-0.177
 21
0.0
 31
0.0
  0
LINE
  5
17D
330
142
100
AcDbEntity
  8
AM_0
100
AcDbLine
 10
-0.177
 20
0.339
 30
0.0
 11
-0.177
 21
0.2915
 31
0.0
  0
LINE
  5
17E
330
142
100
AcDbEntity
  8
AM_0
100
AcDbLine
 10
0.1764999999999999
 20
0.0
 30
0.0
 11
0.1764999999999999
 21
0.03
 31
0.0
  0
LINE
  5
17F
330
142
100
AcDbEntity
  8
AM_0
100
AcDbLine
 10
0.177
 20
0.042
 30
0.0
 11
0.177
 21
0.0
 31
0.0
  0
LINE
  5
180
330
142
100
AcDbEntity
  8
AM_0
100
AcDbLine
 10
0.177
 20
0.339
 30
0.0
 11
0.177
 21
0.2915
 31
0.0
  0
LINE
  5
181
330
142
100
AcDbEntity
  8
AM_0
100
AcDbLine
 10
0.162
 20
0.339
 30
0.0
 11
0.162
 21
0.03
 31
0.0
  0
LINE
  5
182
330
142
100
AcDbEntity
  8
AM_0
100
AcDbLine
 10
0.1545
 20
0.03
 30
0.0
 11
0.1764999999999999
 21
0.03
 31
0.0
  0
LINE
  5
183
330
142
100
AcDbEntity
  8
AM_0
100
AcDbLine
 10
-0.1545
 20
0.0
 30
0.0
 11
-0.1545
 21
0.03
 31
0.0
  0
LINE
  5
184
330
142
100
AcDbEntity
  8
AM_0
100
AcDbLine
 10
0.1545
 20
0.03
 30
0.0
 11
0.1545
 21
0.0
 31
0.0
  0
LINE
  5
185
330
142
100
AcDbEntity
  8
AM_0
100
AcDbLine
 10
0.162
 20
0.319
 30
0.0
 11
-0.162
 21
0.319
 31
0.0
  0
LINE
  5
186
330
142
100
AcDbEntity
  8
AM_0
100
AcDbLine
 10
0.0448571428571429
 20
0.1276
 30
0.0
 11
0.0
 21
0.1276
 31
0.0
  0
LINE
  5
187
330
142
100
AcDbEntity
  8
AM_0
100
AcDbLine
 10
0.0448571428571429
 20
0.2076
 30
0.0
 11
0.0448571428571429
 21
0.1276
 31
0.0
  0
LINE
  5
188
330
142
100
AcDbEntity
  8
AM_0
100
AcDbLine
 10
0.0448571428571429
 20
0.2076
 30
0.0
 11
0.0
 21
0.2076
 31
0.0
  0
LINE
  5
189
330
142
100
AcDbEntity
  8
AM_0
100
AcDbLine
 10
0.0
 20
0.2076
 30
0.0
 11
0.0
 21
0.1276
 31
0.0
  0
LINE
  5
18A
330
142
100
AcDbEntity
  8
AM_0
100
AcDbLine
 10
0.0328571428571428
 20
0.2076
 30
0.0
 11
0.0328571428571428
 21
0.1276
 31
0.0
  0
ENDBLK
  5
145
330
142
100
AcDbEntity
  8
0
100
AcDbBlockEnd
  0
ENDSEC
  0
SECTION
  2
ENTITIES
  0
ATTDEF
  5
6F
330
1F
100
AcDbEntity
  8
AM_6
100
AcDbText
 10
5.193
 20
0.3816000000000001
 30
0.0
 40
0.5
  1
AB11AH-HC
100
AcDbAttributeDefinition
  3

  2
NB
 70
     8
280
     0
  0
ATTDEF
  5
70
330
1F
100
AcDbEntity
  8
AM_6
100
AcDbText
 10
5.193
 20
-0.1183999999999999
 30
0.0
 40
0.5
  1
AB Series - Process Sealed Subminiature Pushbuttons
100
AcDbAttributeDefinition
  3

  2
NN
 70
     8
280
     0
  0
ATTDEF
  5
71
330
1F
100
AcDbEntity
  8
AM_6
100
AcDbText
 10
5.193
 20
-0.6184
 30
0.0
 40
0.5
  1

100
AcDbAttributeDefinition
  3

  2
NT
 70
     8
280
     0
  0
ATTDEF
  5
72
330
1F
100
AcDbEntity
  8
AM_6
100
AcDbText
 10
5.193
 20
-1.1184
 30
0.0
 40
0.5
  1
$PN.
100
AcDbAttributeDefinition
  3

  2
NBSYN
 70
     8
280
     0
  0
ATTDEF
  5
73
330
1F
100
AcDbEntity
  8
AM_6
100
AcDbText
 10
5.193
 20
-1.6184
 30
0.0
 40
0.5
  1
AB11AH-HC
100
AcDbAttributeDefinition
  3

  2
LINA
 70
     8
280
     0
  0
ATTDEF
  5
74
330
1F
100
AcDbEntity
  8
AM_6
100
AcDbText
 10
5.193
 20
-2.1184
 30
0.0
 40
0.5
  1
NKK Switches
100
AcDbAttributeDefinition
  3

  2
CATALOG
 70
     8
280
     0
  0
ATTDEF
  5
75
330
1F
100
AcDbEntity
  8
AM_6
100
AcDbText
 10
5.193
 20
-2.6184
 30
0.0
 40
0.5
  1
AB11AH-HC
100
AcDbAttributeDefinition
  3

  2
PN
 70
     8
280
     0
  0
ATTDEF
  5
76
330
1F
100
AcDbEntity
  8
AM_6
100
AcDbText
 10
5.193
 20
-3.1184
 30
0.0
 40
0.5
  1
AB
100
AcDbAttributeDefinition
  3

  2
SRS
 70
     8
280
     0
  0
ATTDEF
  5
77
330
1F
100
AcDbEntity
  8
AM_6
100
AcDbText
 10
5.193
 20
-3.6184
 30
0.0
 40
0.5
  1
1 - SPST/SPDT
100
AcDbAttributeDefinition
  3

  2
PLS
 70
     8
280
     0
  0
ATTDEF
  5
78
330
1F
100
AcDbEntity
  8
AM_6
100
AcDbText
 10
5.193
 20
-4.118399999999999
 30
0.0
 40
0.5
  1
1 - OFF/(ON)
100
AcDbAttributeDefinition
  3

  2
CRCTS
 70
     8
280
     0
  0
ATTDEF
  5
79
330
1F
100
AcDbEntity
  8
AM_6
100
AcDbText
 10
5.193
 20
-4.618399999999999
 30
0.0
 40
0.5
  1
A - .213" (5.4mm) Long
100
AcDbAttributeDefinition
  3

  2
PLNGRS
 70
     8
280
     0
  0
ATTDEF
  5
7A
330
1F
100
AcDbEntity
  8
AM_6
100
AcDbText
 10
5.193
 20
-5.118399999999999
 30
0.0
 40
0.5
  1
H - Right Angle with Bracket
100
AcDbAttributeDefinition
  3

  2
TRMNLS
 70
     8
280
     0
  0
ATTDEF
  5
7B
330
1F
100
AcDbEntity
  8
AM_6
100
AcDbText
 10
5.193
 20
-5.618399999999999
 30
0.0
 40
0.5
  1
H - .295" (7.5mm) Diameter
100
AcDbAttributeDefinition
  3

  2
CAPS
 70
     8
280
     0
  0
ATTDEF
  5
7C
330
1F
100
AcDbEntity
  8
AM_6
100
AcDbText
 10
5.193
 20
-6.118399999999999
 30
0.0
 40
0.5
  1
C - Red
100
AcDbAttributeDefinition
  3

  2
CCLR
 70
     8
280
     0
  0
ATTDEF
  5
7D
330
1F
100
AcDbEntity
  8
AM_6
100
AcDbText
 10
5.193
 20
-6.618399999999999
 30
0.0
 40
0.5
  1
Download pdf
100
AcDbAttributeDefinition
  3

  2
OCHR
 70
     8
280
     0
  0
ATTDEF
  5
7E
330
1F
100
AcDbEntity
  8
AM_6
100
AcDbText
 10
5.193
 20
-7.118399999999999
 30
0.0
 40
0.5
  1
nkkswitches
100
AcDbAttributeDefinition
  3

  2
COMPANY
 70
     8
280
     0
  0
ATTDEF
  5
7F
330
1F
100
AcDbEntity
  8
AM_6
100
AcDbText
 10
5.193
 20
-7.618399999999999
 30
0.0
 40
0.5
  1
{$CADENAS_DATA\23d-libs\nkkswitches\pushbuttons\ab\parts\ab_asmtab.prj},241 {VTYP=3D},{STYP=ASSTAB},{NB=AB11AH-HC},{LINA=AB11AH-HC},{NN=AB Series - Process Sealed Subminiature Pushbuttons},{DATE=18.08.2020 09:17:43},{GEOMDATE=23.01.2009},{VERSION=},{LINEI
100
AcDbAttributeDefinition
  3

  2
PSOL_0
 70
     9
280
     0
  0
ATTDEF
  5
80
330
1F
100
AcDbEntity
  8
AM_6
100
AcDbText
 10
5.193
 20
-8.1184
 30
0.0
 40
0.5
  1
D=10},{WBVAR=PLS,CRCTS,PLNGRS,TRMNLS,CAPS,CCLR},{WBNUMERIC=}  {NB=AB11AH-HC},{LINA=AB11AH-HC},{KT=DUMMY},{PN=AB11AH-HC},{SRS=AB},{PLS=1},{CRCTS=1},{CRCTSALG= '1', '1 - OFF/(ON)', '5', '5 - ON/(ON)' },{PLNGRS=A},{PLNGRSALG= 'A','A - .213\" (5.4mm) Long', '
100
AcDbAttributeDefinition
  3

  2
PSOL_1
 70
     9
280
     0
  0
ATTDEF
  5
81
330
1F
100
AcDbEntity
  8
AM_6
100
AcDbText
 10
5.193
 20
-8.6184
 30
0.0
 40
0.5
  1
B','B - .183\" (4.65mm) Long', 'C','C - .080\" (2.03mm) Long' },{TRMNLS=H},{TRMNLSALG= 'P','P - Straight', 'B','B - Straight with Bracket', 'B1','B1 - Straight with Inline Bracket', 'H','H - Right Angle with Bracket', 'V','V - Vertical with Bracket', 'V1'
100
AcDbAttributeDefinition
  3

  2
PSOL_2
 70
     9
280
     0
  0
ATTDEF
  5
82
330
1F
100
AcDbEntity
  8
AM_6
100
AcDbText
 10
5.193
 20
-9.1184
 30
0.0
 40
0.5
  1
,'V1 - Vertical with Inline Bracket' },{CAPS=H},{CAPSALG= '','w/o Cap', 'F', 'F - .201\" (5.1mm) Diameter', 'H', 'H - .295\" (7.5mm) Diameter' },{CCLR=C},{CCLR1= 'A', 'A - Black', 'B', 'B - White', 'C', 'C - Red' },{CCLRALG= 1.00,0.00,0.00,0.00 },{CHR= ht
100
AcDbAttributeDefinition
  3

  2
PSOL_3
 70
     9
280
     0
  0
ATTDEF
  5
83
330
1F
100
AcDbEntity
  8
AM_6
100
AcDbText
 10
5.193
 20
-9.6184
 30
0.0
 40
0.5
  1
tp://nkkswitches.com/pdf/Apushbuttons.pdf },{OCHR=Download pdf},{X=-},{PPATH=ab_asmtpl.prj}
100
AcDbAttributeDefinition
  3

  2
PSOL_4
 70
     9
280
     0
  0
INSERT
  5
85
330
1F
100
AcDbEntity
  8
0
100
AcDbBlockReference
  2
1_AB11H_terminals_0_in_AB11AH_HC_4
 10
0.0
 20
0.0
 30
0.0
  0
INSERT
  5
B6
330
1F
100
AcDbEntity
  8
0
100
AcDbBlockReference
  2
2_AB1H_bracket_ra_0_in_AB11AH_HC_4
 10
0.0
 20
0.0
 30
0.0
  0
INSERT
  5
104
330
1F
100
AcDbEntity
  8
0
100
AcDbBlockReference
  2
3_AB1AP_HC_caps_0_in_AB11AH_HC_4
 10
0.0
 20
0.0
 30
0.0
  0
INSERT
  5
127
330
1F
100
AcDbEntity
  8
0
100
AcDbBlockReference
  2
4_AB11A_plungers_0_in_AB11AH_HC_4
 10
0.0
 20
0.0
 30
0.0
  0
INSERT
  5
143
330
1F
100
AcDbEntity
  8
0
100
AcDbBlockReference
  2
5_AB11H_body_0_in_AB11AH_HC_4
 10
0.0
 20
0.0
 30
0.0
  0
POINT
  5
18C
330
1F
100
AcDbEntity
  8
2d ConnectionPoints
100
AcDbPoint
 10
0.0
 20
0.169
 30
0.0
  0
POINT
  5
18D
330
1F
100
AcDbEntity
  8
2d ConnectionPoints
100
AcDbPoint
 10
0.0
 20
-0.39
 30
0.0
  0
POINT
  5
18E
330
1F
100
AcDbEntity
  8
2d ConnectionPoints
100
AcDbPoint
 10
0.0
 20
-0.177
 30
0.0
  0
POINT
  5
18F
330
1F
100
AcDbEntity
  8
2d ConnectionPoints
100
AcDbPoint
 10
0.0
 20
-0.39
 30
0.0
  0
POINT
  5
190
330
1F
100
AcDbEntity
  8
2d ConnectionPoints
100
AcDbPoint
 10
0.177
 20
0.169
 30
0.0
  0
POINT
  5
191
330
1F
100
AcDbEntity
  8
2d ConnectionPoints
100
AcDbPoint
 10
0.177
 20
0.152
 30
0.0
  0
POINT
  5
192
330
1F
100
AcDbEntity
  8
2d ConnectionPoints
100
AcDbPoint
 10
0.0
 20
0.169
 30
0.0
  0
POINT
  5
193
330
1F
100
AcDbEntity
  8
2d ConnectionPoints
100
AcDbPoint
 10
0.0
 20
0.17
 30
0.0
  0
POINT
  5
194
330
1F
100
AcDbEntity
  8
2d ConnectionPoints
100
AcDbPoint
 10
0.0
 20
0.3080000000000001
 30
0.0
  0
POINT
  5
195
330
1F
100
AcDbEntity
  8
2d ConnectionPoints
100
AcDbPoint
 10
0.0
 20
0.3080000000000001
 30
0.0
  0
POINT
  5
196
330
1F
100
AcDbEntity
  8
2d ConnectionPoints
100
AcDbPoint
 10
0.0
 20
0.0
 30
0.0
  0
POINT
  5
197
330
1F
100
AcDbEntity
  8
2d ConnectionPoints
100
AcDbPoint
 10
0.0
 20
-0.001
 30
0.0
  0
POINT
  5
198
330
1F
100
AcDbEntity
  8
2d ConnectionPoints
100
AcDbPoint
 10
-0.001
 20
0.0
 30
0.0
  0
POINT
  5
199
330
1F
100
AcDbEntity
  8
2d ConnectionPoints
100
AcDbPoint
 10
0.0
 20
-0.177
 30
0.0
  0
POINT
  5
19A
330
1F
100
AcDbEntity
  8
2d ConnectionPoints
100
AcDbPoint
 10
0.0
 20
0.305
 30
0.0
  0
POINT
  5
19B
330
1F
100
AcDbEntity
  8
2d ConnectionPoints
100
AcDbPoint
 10
0.0
 20
0.3090000000000001
 30
0.0
  0
POINT
  5
19C
330
1F
100
AcDbEntity
  8
2d ConnectionPoints
100
AcDbPoint
 10
0.0
 20
0.305
 30
0.0
  0
ENDSEC
  0
SECTION
  2
OBJECTS
  0
DICTIONARY
  5
C
330
0
100
AcDbDictionary
281
     1
  3
ACAD_DETAILVIEWSTYLE
350
1A4
  3
ACAD_GROUP
350
D
  3
ACAD_LAYOUT
350
1A
  3
ACAD_MATERIAL
350
43
  3
ACAD_MLEADERSTYLE
350
6B
  3
ACAD_MLINESTYLE
350
17
  3
ACAD_PLOTSETTINGS
350
19
  3
ACAD_PLOTSTYLENAME
350
E
  3
ACAD_SCALELIST
350
47
  3
ACAD_SECTIONVIEWSTYLE
350
1A5
  3
ACAD_TABLESTYLE
350
69
  3
ACAD_VISUALSTYLE
350
2A
  3
ACDB_RECOMPOSE_DATA
350
1A1
  3
AcDbVariableDictionary
350
19D
  0
SUN
  5
6D
330
29
100
AcDbSun
 90
        1
290
     0
 63
     7
421
 16777215
 40
1.0
291
     1
 91
  2455826
 92
 54000000
292
     0
 70
     2
 71
   256
280
     1
  0
DICTIONARY
  5
1A4
102
{ACAD_REACTORS
330
C
102
}
330
C
100
AcDbDictionary
281
     1
  0
DICTIONARY
  5
D
102
{ACAD_REACTORS
330
C
102
}
330
C
100
AcDbDictionary
281
     1
  0
DICTIONARY
  5
1A
102
{ACAD_REACTORS
330
C
102
}
330
C
100
AcDbDictionary
281
     1
  3
Layout1
350
1E
  3
Layout2
350
26
  3
Model
350
22
  0
DICTIONARY
  5
43
102
{ACAD_REACTORS
330
C
102
}
330
C
100
AcDbDictionary
281
     1
  3
ByBlock
350
45
  3
ByLayer
350
44
  3
Global
350
46
  0
DICTIONARY
  5
6B
102
{ACAD_REACTORS
330
C
102
}
330
C
100
AcDbDictionary
281
     1
  3
Standard
350
6C
  0
DICTIONARY
  5
17
102
{ACAD_REACTORS
330
C
102
}
330
C
100
AcDbDictionary
281
     1
  3
Standard
350
18
  0
DICTIONARY
  5
19
102
{ACAD_REACTORS
330
C
102
}
330
C
100
AcDbDictionary
281
     1
  0
ACDBDICTIONARYWDFLT
  5
E
102
{ACAD_REACTORS
330
C
102
}
330
C
100
AcDbDictionary
281
     1
  3
Normal
350
F
100
AcDbDictionaryWithDefault
340
F
  0
DICTIONARY
  5
47
102
{ACAD_REACTORS
330
C
102
}
330
C
100
AcDbDictionary
281
     1
  3
A0
350
48
  3
A1
350
49
  3
A2
350
4A
  3
A3
350
4B
  3
A4
350
4C
  3
A5
350
4D
  3
A6
350
4E
  3
A7
350
4F
  3
A8
350
50
  3
A9
350
51
  3
B0
350
52
  3
B1
350
53
  3
B2
350
54
  3
B3
350
55
  3
B4
350
56
  3
B5
350
57
  3
B6
350
58
  3
B7
350
59
  3
B8
350
5A
  3
B9
350
5B
  3
C0
350
5C
  3
C1
350
5D
  3
C2
350
5E
  3
C3
350
5F
  3
C4
350
60
  3
C5
350
61
  3
C6
350
62
  3
C7
350
63
  3
C8
350
64
  3
C9
350
65
  3
D0
350
66
  3
D1
350
67
  3
D2
350
68
  0
DICTIONARY
  5
1A5
102
{ACAD_REACTORS
330
C
102
}
330
C
100
AcDbDictionary
281
     1
  0
DICTIONARY
  5
69
102
{ACAD_REACTORS
330
C
102
}
330
C
100
AcDbDictionary
281
     1
  3
Standard
350
6A
  0
DICTIONARY
  5
2A
102
{ACAD_REACTORS
330
C
102
}
330
C
100
AcDbDictionary
281
     1
  3
2dWireframe
350
2F
  3
Basic
350
32
  3
Brighten
350
36
  3
ColorChange
350
3A
  3
Conceptual
350
34
  3
Dim
350
35
  3
EdgeColorOff
350
3D
  3
Facepattern
350
39
  3
Flat
350
2B
  3
FlatWithEdges
350
2C
  3
Gouraud
350
2D
  3
GouraudWithEdges
350
2E
  3
Hidden
350
31
  3
JitterOff
350
3B
  3
Linepattern
350
38
  3
OverhangOff
350
3C
  3
Realistic
350
33
  3
Shaded
350
42
  3
Shaded with edges
350
41
  3
Shades of Gray
350
3E
  3
Sketchy
350
3F
  3
Thicken
350
37
  3
Wireframe
350
30
  3
X-Ray
350
40
  0
XRECORD
  5
1A1
102
{ACAD_REACTORS
330
C
102
}
330
C
100
AcDbXrecord
280
     1
 90
        1
330
6A
  0
DICTIONARY
  5
19D
102
{ACAD_REACTORS
330
C
102
}
330
C
100
AcDbDictionary
281
     1
  3
CANNOSCALE
350
19E
  3
CMLEADERSTYLE
350
1A3
  3
CTABLESTYLE
350
1A2
  0
LAYOUT
  5
1E
102
{ACAD_REACTORS
330
1A
102
}
330
1A
100
AcDbPlotSettings
  1

  2
none_device
  4

  6

 40
0.0
 41
0.0
 42
0.0
 43
0.0
 44
0.0
 45
0.0
 46
0.0
 47
0.0
 48
0.0
 49
0.0
140
0.0
141
0.0
142
1.0
143
1.0
 70
   688
 72
     0
 73
     0
 74
     5
  7

 75
    16
 76
     0
 77
     2
 78
   300
147
1.0
148
0.0
149
0.0
100
AcDbLayout
  1
Layout1
 70
     1
 71
     1
 10
0.0
 20
0.0
 11
12.0
 21
9.0
 12
0.0
 22
0.0
 32
0.0
 14
1.000000000000000E+20
 24
1.000000000000000E+20
 34
1.000000000000000E+20
 15
-1.000000000000000E+20
 25
-1.000000000000000E+20
 35
-1.000000000000000E+20
146
0.0
 13
0.0
 23
0.0
 33
0.0
 16
1.0
 26
0.0
 36
0.0
 17
0.0
 27
1.0
 37
0.0
 76
     0
330
1B
  0
LAYOUT
  5
26
102
{ACAD_REACTORS
330
1A
102
}
330
1A
100
AcDbPlotSettings
  1

  2
none_device
  4

  6

 40
0.0
 41
0.0
 42
0.0
 43
0.0
 44
0.0
 45
0.0
 46
0.0
 47
0.0
 48
0.0
 49
0.0
140
0.0
141
0.0
142
1.0
143
1.0
 70
   688
 72
     0
 73
     0
 74
     5
  7

 75
    16
 76
     0
 77
     2
 78
   300
147
1.0
148
0.0
149
0.0
100
AcDbLayout
  1
Layout2
 70
     1
 71
     2
 10
0.0
 20
0.0
 11
0.0
 21
0.0
 12
0.0
 22
0.0
 32
0.0
 14
0.0
 24
0.0
 34
0.0
 15
0.0
 25
0.0
 35
0.0
146
0.0
 13
0.0
 23
0.0
 33
0.0
 16
1.0
 26
0.0
 36
0.0
 17
0.0
 27
1.0
 37
0.0
 76
     0
330
23
  0
LAYOUT
  5
22
102
{ACAD_REACTORS
330
1A
102
}
330
1A
100
AcDbPlotSettings
  1

  2
none_device
  4
Letter_(8.50_x_11.00_Inches)
  6

 40
6.35
 41
6.35
 42
6.35000508
 43
6.35000508
 44
215.9
 45
279.4
 46
0.0
 47
0.0
 48
0.0
 49
0.0
140
0.0
141
0.0
142
1.0
143
1.0
 70
  1712
 72
     0
 73
     0
 74
     0
  7

 75
     0
 76
     0
 77
     2
 78
   300
147
1.0
148
0.0
149
0.0
100
AcDbLayout
  1
Model
 70
     1
 71
     0
 10
0.0
 20
0.0
 11
12.0
 21
9.0
 12
0.0
 22
0.0
 32
0.0
 14
1.000000000000000E+20
 24
1.000000000000000E+20
 34
1.000000000000000E+20
 15
-1.000000000000000E+20
 25
-1.000000000000000E+20
 35
-1.000000000000000E+20
146
0.0
 13
0.0
 23
0.0
 33
0.0
 16
1.0
 26
0.0
 36
0.0
 17
0.0
 27
1.0
 37
0.0
 76
     0
330
1F
331
29
  0
MATERIAL
  5
45
102
{ACAD_REACTORS
330
43
102
}
330
43
100
AcDbMaterial
  1
ByBlock
 72
     1
 94
      127
  0
MATERIAL
  5
44
102
{ACAD_REACTORS
330
43
102
}
330
43
100
AcDbMaterial
  1
ByLayer
 72
     1
 94
      127
  0
MATERIAL
  5
46
102
{ACAD_REACTORS
330
43
102
}
330
43
100
AcDbMaterial
  1
Global
 72
     1
 94
      127
  0
MLEADERSTYLE
  5
6C
102
{ACAD_REACTORS
330
6B
102
}
330
6B
100
AcDbMLeaderStyle
179
     2
170
     2
171
     1
172
     0
 90
        2
 40
0.0
 41
0.0
173
     1
 91
-1056964608
340
14
 92
       -2
290
     1
 42
0.09
291
     1
 43
0.36
  3
Standard
341
0
 44
0.18
300

342
11
174
     1
178
     6
175
     1
176
     0
 93
-1056964608
 45
0.18
292
     0
297
     0
 46
0.18
343
0
 94
-1056964608
 47
1.0
 49
1.0
140
1.0
293
     1
141
0.0
294
     1
177
     0
142
1.0
295
     0
296
     0
143
0.125
271
     0
272
     9
273
     9
298
     0
  0
MLINESTYLE
  5
18
102
{ACAD_REACTORS
330
17
102
}
330
17
100
AcDbMlineStyle
  2
Standard
 70
     0
  3

 62
   256
 51
90.0
 52
90.0
 71
     2
 49
0.5
 62
   256
  6
BYLAYER
 49
-0.5
 62
   256
  6
BYLAYER
  0
ACDBPLACEHOLDER
  5
F
102
{ACAD_REACTORS
330
E
102
}
330
E
  0
SCALE
  5
48
102
{ACAD_REACTORS
330
47
102
}
330
47
100
AcDbScale
 70
     0
300
1:1
140
1.0
141
1.0
290
     1
  0
SCALE
  5
49
102
{ACAD_REACTORS
330
47
102
}
330
47
100
AcDbScale
 70
     0
300
1:2
140
1.0
141
2.0
290
     0
  0
SCALE
  5
4A
102
{ACAD_REACTORS
330
47
102
}
330
47
100
AcDbScale
 70
     0
300
1:4
140
1.0
141
4.0
290
     0
  0
SCALE
  5
4B
102
{ACAD_REACTORS
330
47
102
}
330
47
100
AcDbScale
 70
     0
300
1:5
140
1.0
141
5.0
290
     0
  0
SCALE
  5
4C
102
{ACAD_REACTORS
330
47
102
}
330
47
100
AcDbScale
 70
     0
300
1:8
140
1.0
141
8.0
290
     0
  0
SCALE
  5
4D
102
{ACAD_REACTORS
330
47
102
}
330
47
100
AcDbScale
 70
     0
300
1:10
140
1.0
141
10.0
290
     0
  0
SCALE
  5
4E
102
{ACAD_REACTORS
330
47
102
}
330
47
100
AcDbScale
 70
     0
300
1:16
140
1.0
141
16.0
290
     0
  0
SCALE
  5
4F
102
{ACAD_REACTORS
330
47
102
}
330
47
100
AcDbScale
 70
     0
300
1:20
140
1.0
141
20.0
290
     0
  0
SCALE
  5
50
102
{ACAD_REACTORS
330
47
102
}
330
47
100
AcDbScale
 70
     0
300
1:30
140
1.0
141
30.0
290
     0
  0
SCALE
  5
51
102
{ACAD_REACTORS
330
47
102
}
330
47
100
AcDbScale
 70
     0
300
1:40
140
1.0
141
40.0
290
     0
  0
SCALE
  5
52
102
{ACAD_REACTORS
330
47
102
}
330
47
100
AcDbScale
 70
     0
300
1:50
140
1.0
141
50.0
290
     0
  0
SCALE
  5
53
102
{ACAD_REACTORS
330
47
102
}
330
47
100
AcDbScale
 70
     0
300
1:100
140
1.0
141
100.0
290
     0
  0
SCALE
  5
54
102
{ACAD_REACTORS
330
47
102
}
330
47
100
AcDbScale
 70
     0
300
2:1
140
2.0
141
1.0
290
     0
  0
SCALE
  5
55
102
{ACAD_REACTORS
330
47
102
}
330
47
100
AcDbScale
 70
     0
300
4:1
140
4.0
141
1.0
290
     0
  0
SCALE
  5
56
102
{ACAD_REACTORS
330
47
102
}
330
47
100
AcDbScale
 70
     0
300
8:1
140
8.0
141
1.0
290
     0
  0
SCALE
  5
57
102
{ACAD_REACTORS
330
47
102
}
330
47
100
AcDbScale
 70
     0
300
10:1
140
10.0
141
1.0
290
     0
  0
SCALE
  5
58
102
{ACAD_REACTORS
330
47
102
}
330
47
100
AcDbScale
 70
     0
300
100:1
140
100.0
141
1.0
290
     0
  0
SCALE
  5
59
102
{ACAD_REACTORS
330
47
102
}
330
47
100
AcDbScale
 70
     0
300
1/128" = 1'-0"
140
0.0078125
141
12.0
290
     0
  0
SCALE
  5
5A
102
{ACAD_REACTORS
330
47
102
}
330
47
100
AcDbScale
 70
     0
300
1/64" = 1'-0"
140
0.015625
141
12.0
290
     0
  0
SCALE
  5
5B
102
{ACAD_REACTORS
330
47
102
}
330
47
100
AcDbScale
 70
     0
300
1/32" = 1'-0"
140
0.03125
141
12.0
290
     0
  0
SCALE
  5
5C
102
{ACAD_REACTORS
330
47
102
}
330
47
100
AcDbScale
 70
     0
300
1/16" = 1'-0"
140
0.0625
141
12.0
290
     0
  0
SCALE
  5
5D
102
{ACAD_REACTORS
330
47
102
}
330
47
100
AcDbScale
 70
     0
300
3/32" = 1'-0"
140
0.09375
141
12.0
290
     0
  0
SCALE
  5
5E
102
{ACAD_REACTORS
330
47
102
}
330
47
100
AcDbScale
 70
     0
300
1/8" = 1'-0"
140
0.125
141
12.0
290
     0
  0
SCALE
  5
5F
102
{ACAD_REACTORS
330
47
102
}
330
47
100
AcDbScale
 70
     0
300
3/16" = 1'-0"
140
0.1875
141
12.0
290
     0
  0
SCALE
  5
60
102
{ACAD_REACTORS
330
47
102
}
330
47
100
AcDbScale
 70
     0
300
1/4" = 1'-0"
140
0.25
141
12.0
290
     0
  0
SCALE
  5
61
102
{ACAD_REACTORS
330
47
102
}
330
47
100
AcDbScale
 70
     0
300
3/8" = 1'-0"
140
0.375
141
12.0
290
     0
  0
SCALE
  5
62
102
{ACAD_REACTORS
330
47
102
}
330
47
100
AcDbScale
 70
     0
300
1/2" = 1'-0"
140
0.5
141
12.0
290
     0
  0
SCALE
  5
63
102
{ACAD_REACTORS
330
47
102
}
330
47
100
AcDbScale
 70
     0
300
3/4" = 1'-0"
140
0.75
141
12.0
290
     0
  0
SCALE
  5
64
102
{ACAD_REACTORS
330
47
102
}
330
47
100
AcDbScale
 70
     0
300
1" = 1'-0"
140
1.0
141
12.0
290
     0
  0
SCALE
  5
65
102
{ACAD_REACTORS
330
47
102
}
330
47
100
AcDbScale
 70
     0
300
1-1/2" = 1'-0"
140
1.5
141
12.0
290
     0
  0
SCALE
  5
66
102
{ACAD_REACTORS
330
47
102
}
330
47
100
AcDbScale
 70
     0
300
3" = 1'-0"
140
3.0
141
12.0
290
     0
  0
SCALE
  5
67
102
{ACAD_REACTORS
330
47
102
}
330
47
100
AcDbScale
 70
     0
300
6" = 1'-0"
140
6.0
141
12.0
290
     0
  0
SCALE
  5
68
102
{ACAD_REACTORS
330
47
102
}
330
47
100
AcDbScale
 70
     0
300
1'-0" = 1'-0"
140
12.0
141
12.0
290
     0
  0
TABLESTYLE
  5
6A
102
{ACAD_REACTORS
330
69
102
}
102
{ACAD_XDICTIONARY
360
19F
102
}
330
69
100
AcDbTableStyle
  3
Standard
 70
     0
 71
     0
 40
0.06
 41
0.06
280
     0
281
     0
  7
Standard
140
0.18
170
     2
 62
     0
 63
   257
283
     0
 90
        4
 91
        0
  1

274
    -2
284
     1
 64
     0
275
    -2
285
     1
 65
     0
276
    -2
286
     1
 66
     0
277
    -2
287
     1
 67
     0
278
    -2
288
     1
 68
     0
279
    -2
289
     1
 69
     0
  7
Standard
140
0.25
170
     5
 62
     0
 63
   257
283
     0
 90
        4
 91
        0
  1

274
    -2
284
     1
 64
     0
275
    -2
285
     1
 65
     0
276
    -2
286
     1
 66
     0
277
    -2
287
     1
 67
     0
278
    -2
288
     1
 68
     0
279
    -2
289
     1
 69
     0
  7
Standard
140
0.18
170
     5
 62
     0
 63
   257
283
     0
 90
        4
 91
        0
  1

274
    -2
284
     1
 64
     0
275
    -2
285
     1
 65
     0
276
    -2
286
     1
 66
     0
277
    -2
287
     1
 67
     0
278
    -2
288
     1
 68
     0
279
    -2
289
     1
 69
     0
  0
VISUALSTYLE
  5
2F
102
{ACAD_REACTORS
330
2A
102
}
330
2A
100
AcDbVisualStyle
  2
2dWireframe
 70
     4
177
     3
291
     0
 70
    58
 90
        0
176
     1
 90
        2
176
     1
 90
        0
176
     1
 90
        0
176
     1
 40
0.6
176
     1
 40
30.0
176
     1
 62
     7
420
 16777215
176
     1
 90
        1
176
     1
 90
        4
176
     1
 62
     7
176
     1
 62
   257
176
     1
 90
        1
176
     1
 90
        1
176
     1
 40
1.0
176
     1
 90
        0
176
     1
 62
   257
176
     1
 40
1.0
176
     1
 90
        1
176
     1
 90
        6
176
     1
 90
        2
176
     1
 62
     7
176
     1
 90
        5
176
     1
 90
        0
176
     1
 90
        0
176
     1
290
     0
176
     1
 90
        1
176
     1
 40
0.0
176
     1
 90
        0
176
     1
290
     1
176
     1
290
     1
176
     1
290
     0
176
     1
290
     0
176
     1
290
     0
176
     1
290
     0
176
     1
290
     0
176
     1
290
     0
176
     1
290
     0
176
     1
 90
       50
176
     1
 40
0.0
176
     1
 40
1.0
176
     1
 90
        0
176
     1
 62
    18
420
        0
176
     1
 90
       50
176
     1
 90
        3
176
     1
 62
     5
420
      255
176
     1
290
     0
176
     1
 90
       50
176
     1
 90
       50
176
     1
 90
       50
176
     1
290
     0
176
     1
 90
       50
176
     1
 62
   256
176
     0
 40
1.0
176
     0
 90
        2
176
     1
  1
strokes_ogs.tif
176
     1
290
     0
176
     1
 40
1.0
176
     1
 40
1.0
176
     1
  0
VISUALSTYLE
  5
32
102
{ACAD_REACTORS
330
2A
102
}
330
2A
100
AcDbVisualStyle
  2
Basic
 70
     7
177
     3
291
     1
 70
    58
 90
        1
176
     1
 90
        0
176
     1
 90
        1
176
     1
 90
        0
176
     1
 40
0.6
176
     1
 40
30.0
176
     1
 62
     7
420
 16777215
176
     1
 90
        0
176
     1
 90
        4
176
     1
 62
     7
176
     1
 62
   257
176
     1
 90
        1
176
     1
 90
        1
176
     1
 40
1.0
176
     1
 90
        8
176
     1
 62
     7
176
     1
 40
1.0
176
     1
 90
        1
176
     1
 90
        6
176
     1
 90
        2
176
     1
 62
     7
176
     1
 90
        5
176
     1
 90
        0
176
     1
 90
        0
176
     1
290
     0
176
     1
 90
        1
176
     1
 40
0.0
176
     1
 90
        0
176
     1
290
     0
176
     1
290
     1
176
     1
290
     1
176
     1
290
     0
176
     1
290
     0
176
     1
290
     0
176
     1
290
     0
176
     1
290
     0
176
     1
290
     0
176
     1
 90
       50
176
     1
 40
0.0
176
     1
 40
1.0
176
     1
 90
        0
176
     1
 62
    18
420
        0
176
     1
 90
       50
176
     1
 90
        3
176
     1
 62
     5
420
      255
176
     1
290
     0
176
     1
 90
       50
176
     1
 90
       50
176
     1
 90
       50
176
     1
290
     0
176
     1
 90
       50
176
     1
 62
   256
176
     0
 40
1.0
176
     0
 90
        2
176
     1
  1
strokes_ogs.tif
176
     1
290
     0
176
     1
 40
1.0
176
     1
 40
1.0
176
     1
  0
VISUALSTYLE
  5
36
102
{ACAD_REACTORS
330
2A
102
}
330
2A
100
AcDbVisualStyle
  2
Brighten
 70
    12
177
     3
291
     1
 70
    58
 90
        2
176
     1
 90
        2
176
     1
 90
        0
176
     1
 90
        0
176
     1
 40
0.6
176
     1
 40
30.0
176
     1
 62
     7
420
 16777215
176
     1
 90
        1
176
     1
 90
        4
176
     1
 62
     7
176
     1
 62
   257
176
     1
 90
        1
176
     1
 90
        1
176
     1
 40
1.0
176
     1
 90
        8
176
     1
 62
     7
176
     1
 40
1.0
176
     1
 90
        1
176
     1
 90
        6
176
     1
 90
        2
176
     1
 62
     7
176
     1
 90
        5
176
     1
 90
        0
176
     1
 90
        0
176
     1
290
     0
176
     1
 90
        1
176
     1
 40
50.0
176
     1
 90
        0
176
     1
290
     0
176
     1
290
     1
176
     1
290
     1
176
     1
290
     0
176
     1
290
     0
176
     1
290
     0
176
     1
290
     0
176
     1
290
     0
176
     1
290
     0
176
     1
 90
       50
176
     1
 40
0.0
176
     1
 40
1.0
176
     1
 90
        0
176
     1
 62
    18
420
        0
176
     1
 90
       50
176
     1
 90
        3
176
     1
 62
     5
420
      255
176
     1
290
     0
176
     1
 90
       50
176
     1
 90
       50
176
     1
 90
       50
176
     1
290
     0
176
     1
 90
       50
176
     1
 62
   256
176
     0
 40
1.0
176
     0
 90
        2
176
     1
  1
strokes_ogs.tif
176
     1
290
     0
176
     1
 40
1.0
176
     1
 40
1.0
176
     1
  0
VISUALSTYLE
  5
3A
102
{ACAD_REACTORS
330
2A
102
}
330
2A
100
AcDbVisualStyle
  2
ColorChange
 70
    16
177
     3
291
     1
 70
    58
 90
        2
176
     1
 90
        2
176
     1
 90
        3
176
     1
 90
        0
176
     1
 40
0.6
176
     1
 40
30.0
176
     1
 62
     8
420
  8421504
176
     1
 90
        1
176
     1
 90
        4
176
     1
 62
     7
176
     1
 62
   257
176
     1
 90
        1
176
     1
 90
        1
176
     1
 40
1.0
176
     1
 90
        8
176
     1
 62
     8
420
  8421504
176
     1
 40
1.0
176
     1
 90
        1
176
     1
 90
        6
176
     1
 90
        2
176
     1
 62
     7
176
     1
 90
        5
176
     1
 90
        0
176
     1
 90
        0
176
     1
290
     0
176
     1
 90
        1
176
     1
 40
0.0
176
     1
 90
        0
176
     1
290
     0
176
     1
290
     1
176
     1
290
     1
176
     1
290
     0
176
     1
290
     0
176
     1
290
     0
176
     1
290
     0
176
     1
290
     0
176
     1
290
     0
176
     1
 90
       50
176
     1
 40
0.0
176
     1
 40
1.0
176
     1
 90
        0
176
     1
 62
    18
420
        0
176
     1
 90
       50
176
     1
 90
        3
176
     1
 62
     5
420
      255
176
     1
290
     0
176
     1
 90
       50
176
     1
 90
       50
176
     1
 90
       50
176
     1
290
     0
176
     1
 90
       50
176
     1
 62
   256
176
     0
 40
1.0
176
     0
 90
        2
176
     1
  1
strokes_ogs.tif
176
     1
290
     0
176
     1
 40
1.0
176
     1
 40
1.0
176
     1
  0
VISUALSTYLE
  5
34
102
{ACAD_REACTORS
330
2A
102
}
330
2A
100
AcDbVisualStyle
  2
Conceptual
 70
     9
177
     3
291
     0
 70
    58
 90
        3
176
     1
 90
        2
176
     1
 90
        0
176
     1
 90
        0
176
     1
 40
0.6
176
     1
 40
30.0
176
     1
 62
     7
420
 16777215
176
     1
 90
        2
176
     1
 90
        2
176
     1
 62
     7
176
     1
 62
   257
176
     1
 90
        1
176
     1
 90
        1
176
     1
 40
179.0
176
     1
 90
        8
176
     1
 62
     7
176
     1
 40
1.0
176
     1
 90
        1
176
     1
 90
        6
176
     1
 90
        2
176
     1
 62
     7
176
     1
 90
        3
176
     1
 90
        0
176
     1
 90
        0
176
     1
290
     0
176
     1
 90
        1
176
     1
 40
0.0
176
     1
 90
        0
176
     1
290
     0
176
     1
290
     1
176
     1
290
     1
176
     1
290
     0
176
     1
290
     0
176
     1
290
     0
176
     1
290
     0
176
     1
290
     0
176
     1
290
     0
176
     1
 90
       50
176
     1
 40
0.0
176
     1
 40
1.0
176
     1
 90
        0
176
     1
 62
    18
420
        0
176
     1
 90
       50
176
     1
 90
        3
176
     1
 62
     5
420
      255
176
     1
290
     0
176
     1
 90
       50
176
     1
 90
       50
176
     1
 90
       50
176
     1
290
     0
176
     1
 90
       50
176
     1
 62
   256
176
     0
 40
1.0
176
     0
 90
        2
176
     1
  1
strokes_ogs.tif
176
     1
290
     0
176
     1
 40
1.0
176
     1
 40
1.0
176
     1
  0
VISUALSTYLE
  5
35
102
{ACAD_REACTORS
330
2A
102
}
330
2A
100
AcDbVisualStyle
  2
Dim
 70
    11
177
     3
291
     1
 70
    58
 90
        2
176
     1
 90
        2
176
     1
 90
        0
176
     1
 90
        0
176
     1
 40
0.6
176
     1
 40
30.0
176
     1
 62
     7
420
 16777215
176
     1
 90
        1
176
     1
 90
        4
176
     1
 62
     7
176
     1
 62
   257
176
     1
 90
        1
176
     1
 90
        1
176
     1
 40
1.0
176
     1
 90
        8
176
     1
 62
     7
176
     1
 40
1.0
176
     1
 90
        1
176
     1
 90
        6
176
     1
 90
        2
176
     1
 62
     7
176
     1
 90
        5
176
     1
 90
        0
176
     1
 90
        0
176
     1
290
     0
176
     1
 90
        1
176
     1
 40
-50.0
176
     1
 90
        0
176
     1
290
     0
176
     1
290
     1
176
     1
290
     1
176
     1
290
     0
176
     1
290
     0
176
     1
290
     0
176
     1
290
     0
176
     1
290
     0
176
     1
290
     0
176
     1
 90
       50
176
     1
 40
0.0
176
     1
 40
1.0
176
     1
 90
        0
176
     1
 62
    18
420
        0
176
     1
 90
       50
176
     1
 90
        3
176
     1
 62
     5
420
      255
176
     1
290
     0
176
     1
 90
       50
176
     1
 90
       50
176
     1
 90
       50
176
     1
290
     0
176
     1
 90
       50
176
     1
 62
   256
176
     0
 40
1.0
176
     0
 90
        2
176
     1
  1
strokes_ogs.tif
176
     1
290
     0
176
     1
 40
1.0
176
     1
 40
1.0
176
     1
  0
VISUALSTYLE
  5
3D
102
{ACAD_REACTORS
330
2A
102
}
330
2A
100
AcDbVisualStyle
  2
EdgeColorOff
 70
    22
177
     3
291
     1
 70
    58
 90
        2
176
     0
 90
        2
176
     0
 90
        0
176
     0
 90
        0
176
     0
 40
0.6
176
     0
 40
30.0
176
     0
 62
     7
420
 16777215
176
     0
 90
        1
176
     0
 90
        4
176
     0
 62
     7
176
     0
 62
   257
176
     0
 90
        1
176
     0
 90
        1
176
     0
 40
1.0
176
     0
 90
        8
176
     2
 62
     7
176
     0
 40
1.0
176
     0
 90
        1
176
     0
 90
        6
176
     0
 90
        2
176
     0
 62
     7
176
     0
 90
        5
176
     0
 90
        0
176
     0
 90
        0
176
     0
290
     0
176
     0
 90
        1
176
     0
 40
0.0
176
     0
 90
        0
176
     0
290
     0
176
     0
290
     1
176
     0
290
     1
176
     0
290
     0
176
     0
290
     0
176
     0
290
     0
176
     0
290
     0
176
     0
290
     0
176
     0
290
     0
176
     0
 90
       50
176
     0
 40
0.0
176
     0
 40
1.0
176
     0
 90
        0
176
     0
 62
    18
420
        0
176
     0
 90
       50
176
     0
 90
        3
176
     0
 62
     5
420
      255
176
     0
290
     0
176
     0
 90
       50
176
     0
 90
       50
176
     0
 90
       50
176
     0
290
     0
176
     0
 90
       50
176
     0
 62
   256
176
     0
 40
1.0
176
     0
 90
        2
176
     0
  1
strokes_ogs.tif
176
     0
290
     0
176
     0
 40
1.0
176
     0
 40
1.0
176
     0
  0
VISUALSTYLE
  5
39
102
{ACAD_REACTORS
330
2A
102
}
330
2A
100
AcDbVisualStyle
  2
Facepattern
 70
    15
177
     3
291
     1
 70
    58
 90
        2
176
     1
 90
        2
176
     1
 90
        0
176
     1
 90
        0
176
     1
 40
0.6
176
     1
 40
30.0
176
     1
 62
     7
420
 16777215
176
     1
 90
        1
176
     1
 90
        4
176
     1
 62
     7
176
     1
 62
   257
176
     1
 90
        1
176
     1
 90
        1
176
     1
 40
1.0
176
     1
 90
        8
176
     1
 62
     7
176
     1
 40
1.0
176
     1
 90
        1
176
     1
 90
        6
176
     1
 90
        2
176
     1
 62
     7
176
     1
 90
        5
176
     1
 90
        0
176
     1
 90
        0
176
     1
290
     0
176
     1
 90
        1
176
     1
 40
0.0
176
     1
 90
        0
176
     1
290
     0
176
     1
290
     1
176
     1
290
     1
176
     1
290
     0
176
     1
290
     0
176
     1
290
     0
176
     1
290
     0
176
     1
290
     0
176
     1
290
     0
176
     1
 90
       50
176
     1
 40
0.0
176
     1
 40
1.0
176
     1
 90
        0
176
     1
 62
    18
420
        0
176
     1
 90
       50
176
     1
 90
        3
176
     1
 62
     5
420
      255
176
     1
290
     0
176
     1
 90
       50
176
     1
 90
       50
176
     1
 90
       50
176
     1
290
     0
176
     1
 90
       50
176
     1
 62
   256
176
     0
 40
1.0
176
     0
 90
        2
176
     1
  1
strokes_ogs.tif
176
     1
290
     0
176
     1
 40
1.0
176
     1
 40
1.0
176
     1
  0
VISUALSTYLE
  5
2B
102
{ACAD_REACTORS
330
2A
102
}
330
2A
100
AcDbVisualStyle
  2
Flat
 70
     0
177
     3
291
     1
 70
    58
 90
        2
176
     1
 90
        1
176
     1
 90
        1
176
     1
 90
        2
176
     1
 40
0.6
176
     1
 40
30.0
176
     1
 62
     7
420
 16777215
176
     1
 90
        0
176
     1
 90
        0
176
     1
 62
     7
176
     1
 62
   257
176
     1
 90
        1
176
     1
 90
        1
176
     1
 40
1.0
176
     1
 90
        8
176
     1
 62
     7
176
     1
 40
1.0
176
     1
 90
        1
176
     1
 90
        6
176
     1
 90
        2
176
     1
 62
     7
176
     1
 90
        5
176
     1
 90
        0
176
     1
 90
        0
176
     1
290
     0
176
     1
 90
       13
176
     1
 40
0.0
176
     1
 90
        0
176
     1
290
     0
176
     1
290
     1
176
     1
290
     1
176
     1
290
     0
176
     1
290
     0
176
     1
290
     0
176
     1
290
     0
176
     1
290
     0
176
     1
290
     0
176
     1
 90
       50
176
     1
 40
0.0
176
     1
 40
1.0
176
     1
 90
        0
176
     1
 62
    18
420
        0
176
     1
 90
       50
176
     1
 90
        3
176
     1
 62
     5
420
      255
176
     1
290
     0
176
     1
 90
       50
176
     1
 90
       50
176
     1
 90
       50
176
     1
290
     0
176
     1
 90
       50
176
     1
 62
   256
176
     0
 40
1.0
176
     0
 90
        2
176
     1
  1
strokes_ogs.tif
176
     1
290
     0
176
     1
 40
1.0
176
     1
 40
1.0
176
     1
  0
VISUALSTYLE
  5
2C
102
{ACAD_REACTORS
330
2A
102
}
330
2A
100
AcDbVisualStyle
  2
FlatWithEdges
 70
     1
177
     3
291
     1
 70
    58
 90
        2
176
     1
 90
        1
176
     1
 90
        1
176
     1
 90
        2
176
     1
 40
0.6
176
     1
 40
30.0
176
     1
 62
     7
420
 16777215
176
     1
 90
        1
176
     1
 90
        0
176
     1
 62
     7
176
     1
 62
   257
176
     1
 90
        1
176
     1
 90
        1
176
     1
 40
1.0
176
     1
 90
        0
176
     1
 62
   257
176
     1
 40
1.0
176
     1
 90
        1
176
     1
 90
        6
176
     1
 90
        2
176
     1
 62
     7
176
     1
 90
        5
176
     1
 90
        0
176
     1
 90
        0
176
     1
290
     0
176
     1
 90
       13
176
     1
 40
0.0
176
     1
 90
        0
176
     1
290
     0
176
     1
290
     1
176
     1
290
     1
176
     1
290
     0
176
     1
290
     0
176
     1
290
     0
176
     1
290
     0
176
     1
290
     0
176
     1
290
     0
176
     1
 90
       50
176
     1
 40
0.0
176
     1
 40
1.0
176
     1
 90
        0
176
     1
 62
    18
420
        0
176
     1
 90
       50
176
     1
 90
        3
176
     1
 62
     5
420
      255
176
     1
290
     0
176
     1
 90
       50
176
     1
 90
       50
176
     1
 90
       50
176
     1
290
     0
176
     1
 90
       50
176
     1
 62
   256
176
     0
 40
1.0
176
     0
 90
        2
176
     1
  1
strokes_ogs.tif
176
     1
290
     0
176
     1
 40
1.0
176
     1
 40
1.0
176
     1
  0
VISUALSTYLE
  5
2D
102
{ACAD_REACTORS
330
2A
102
}
330
2A
100
AcDbVisualStyle
  2
Gouraud
 70
     2
177
     3
291
     1
 70
    58
 90
        2
176
     1
 90
        2
176
     1
 90
        1
176
     1
 90
        2
176
     1
 40
0.6
176
     1
 40
30.0
176
     1
 62
     7
420
 16777215
176
     1
 90
        0
176
     1
 90
        0
176
     1
 62
     7
176
     1
 62
   257
176
     1
 90
        1
176
     1
 90
        1
176
     1
 40
1.0
176
     1
 90
        0
176
     1
 62
     7
176
     1
 40
1.0
176
     1
 90
        1
176
     1
 90
        6
176
     1
 90
        2
176
     1
 62
     7
176
     1
 90
        5
176
     1
 90
        0
176
     1
 90
        0
176
     1
290
     0
176
     1
 90
       13
176
     1
 40
0.0
176
     1
 90
        0
176
     1
290
     0
176
     1
290
     1
176
     1
290
     1
176
     1
290
     0
176
     1
290
     0
176
     1
290
     0
176
     1
290
     0
176
     1
290
     0
176
     1
290
     0
176
     1
 90
       50
176
     1
 40
0.0
176
     1
 40
1.0
176
     1
 90
        0
176
     1
 62
    18
420
        0
176
     1
 90
       50
176
     1
 90
        3
176
     1
 62
     5
420
      255
176
     1
290
     0
176
     1
 90
       50
176
     1
 90
       50
176
     1
 90
       50
176
     1
290
     0
176
     1
 90
       50
176
     1
 62
   256
176
     0
 40
1.0
176
     0
 90
        2
176
     1
  1
strokes_ogs.tif
176
     1
290
     0
176
     1
 40
1.0
176
     1
 40
1.0
176
     1
  0
VISUALSTYLE
  5
2E
102
{ACAD_REACTORS
330
2A
102
}
330
2A
100
AcDbVisualStyle
  2
GouraudWithEdges
 70
     3
177
     3
291
     1
 70
    58
 90
        2
176
     1
 90
        2
176
     1
 90
        1
176
     1
 90
        2
176
     1
 40
0.6
176
     1
 40
30.0
176
     1
 62
     7
420
 16777215
176
     1
 90
        1
176
     1
 90
        0
176
     1
 62
     7
176
     1
 62
   257
176
     1
 90
        1
176
     1
 90
        1
176
     1
 40
1.0
176
     1
 90
        0
176
     1
 62
   257
176
     1
 40
1.0
176
     1
 90
        1
176
     1
 90
        6
176
     1
 90
        2
176
     1
 62
     7
176
     1
 90
        5
176
     1
 90
        0
176
     1
 90
        0
176
     1
290
     0
176
     1
 90
       13
176
     1
 40
0.0
176
     1
 90
        0
176
     1
290
     0
176
     1
290
     1
176
     1
290
     1
176
     1
290
     0
176
     1
290
     0
176
     1
290
     0
176
     1
290
     0
176
     1
290
     0
176
     1
290
     0
176
     1
 90
       50
176
     1
 40
0.0
176
     1
 40
1.0
176
     1
 90
        0
176
     1
 62
    18
420
        0
176
     1
 90
       50
176
     1
 90
        3
176
     1
 62
     5
420
      255
176
     1
290
     0
176
     1
 90
       50
176
     1
 90
       50
176
     1
 90
       50
176
     1
290
     0
176
     1
 90
       50
176
     1
 62
   256
176
     0
 40
1.0
176
     0
 90
        2
176
     1
  1
strokes_ogs.tif
176
     1
290
     0
176
     1
 40
1.0
176
     1
 40
1.0
176
     1
  0
VISUALSTYLE
  5
31
102
{ACAD_REACTORS
330
2A
102
}
330
2A
100
AcDbVisualStyle
  2
Hidden
 70
     6
177
     3
291
     0
 70
    58
 90
        1
176
     1
 90
        2
176
     1
 90
        2
176
     1
 90
        0
176
     1
 40
0.6
176
     1
 40
30.0
176
     1
 62
     7
420
 16777215
176
     1
 90
        2
176
     1
 90
        2
176
     1
 62
     7
176
     1
 62
   257
176
     1
 90
        2
176
     1
 90
        1
176
     1
 40
40.0
176
     1
 90
        0
176
     1
 62
   257
176
     1
 40
1.0
176
     1
 90
        1
176
     1
 90
        6
176
     1
 90
        2
176
     1
 62
     7
176
     1
 90
        3
176
     1
 90
        0
176
     1
 90
        0
176
     1
290
     0
176
     1
 90
        1
176
     1
 40
0.0
176
     1
 90
        0
176
     1
290
     0
176
     1
290
     1
176
     1
290
     1
176
     1
290
     0
176
     1
290
     0
176
     1
290
     0
176
     1
290
     0
176
     1
290
     0
176
     1
290
     0
176
     1
 90
       50
176
     1
 40
0.0
176
     1
 40
1.0
176
     1
 90
        0
176
     1
 62
    18
420
        0
176
     1
 90
       50
176
     1
 90
        3
176
     1
 62
     5
420
      255
176
     1
290
     0
176
     1
 90
       50
176
     1
 90
       50
176
     1
 90
       50
176
     1
290
     0
176
     1
 90
       50
176
     1
 62
   256
176
     0
 40
1.0
176
     0
 90
        2
176
     1
  1
strokes_ogs.tif
176
     1
290
     0
176
     1
 40
1.0
176
     1
 40
1.0
176
     1
  0
VISUALSTYLE
  5
3B
102
{ACAD_REACTORS
330
2A
102
}
330
2A
100
AcDbVisualStyle
  2
JitterOff
 70
    20
177
     3
291
     1
 70
    58
 90
        2
176
     0
 90
        2
176
     0
 90
        0
176
     0
 90
        0
176
     0
 40
0.6
176
     0
 40
30.0
176
     0
 62
     7
420
 16777215
176
     0
 90
        1
176
     0
 90
        4
176
     0
 62
     7
176
     0
 62
   257
176
     0
 90
        1
176
     0
 90
        1
176
     0
 40
1.0
176
     0
 90
       10
176
     2
 62
     7
176
     0
 40
1.0
176
     0
 90
        1
176
     0
 90
        6
176
     0
 90
        2
176
     0
 62
     7
176
     0
 90
        5
176
     0
 90
        0
176
     0
 90
        0
176
     0
290
     0
176
     0
 90
        1
176
     0
 40
0.0
176
     0
 90
        0
176
     0
290
     0
176
     0
290
     1
176
     0
290
     1
176
     0
290
     0
176
     0
290
     0
176
     0
290
     0
176
     0
290
     0
176
     0
290
     0
176
     0
290
     0
176
     0
 90
       50
176
     0
 40
0.0
176
     0
 40
1.0
176
     0
 90
        0
176
     0
 62
    18
420
        0
176
     0
 90
       50
176
     0
 90
        3
176
     0
 62
     5
420
      255
176
     0
290
     0
176
     0
 90
       50
176
     0
 90
       50
176
     0
 90
       50
176
     0
290
     0
176
     0
 90
       50
176
     0
 62
   256
176
     0
 40
1.0
176
     0
 90
        2
176
     0
  1
strokes_ogs.tif
176
     0
290
     0
176
     0
 40
1.0
176
     0
 40
1.0
176
     0
  0
VISUALSTYLE
  5
38
102
{ACAD_REACTORS
330
2A
102
}
330
2A
100
AcDbVisualStyle
  2
Linepattern
 70
    14
177
     3
291
     1
 70
    58
 90
        2
176
     1
 90
        2
176
     1
 90
        0
176
     1
 90
        0
176
     1
 40
0.6
176
     1
 40
30.0
176
     1
 62
     7
420
 16777215
176
     1
 90
        1
176
     1
 90
        4
176
     1
 62
     7
176
     1
 62
   257
176
     1
 90
        7
176
     1
 90
        7
176
     1
 40
1.0
176
     1
 90
        8
176
     1
 62
     7
176
     1
 40
1.0
176
     1
 90
        1
176
     1
 90
        6
176
     1
 90
        2
176
     1
 62
     7
176
     1
 90
        5
176
     1
 90
        0
176
     1
 90
        0
176
     1
290
     0
176
     1
 90
        1
176
     1
 40
0.0
176
     1
 90
        0
176
     1
290
     0
176
     1
290
     1
176
     1
290
     1
176
     1
290
     0
176
     1
290
     0
176
     1
290
     0
176
     1
290
     0
176
     1
290
     0
176
     1
290
     0
176
     1
 90
       50
176
     1
 40
0.0
176
     1
 40
1.0
176
     1
 90
        0
176
     1
 62
    18
420
        0
176
     1
 90
       50
176
     1
 90
        3
176
     1
 62
     5
420
      255
176
     1
290
     0
176
     1
 90
       50
176
     1
 90
       50
176
     1
 90
       50
176
     1
290
     0
176
     1
 90
       50
176
     1
 62
   256
176
     0
 40
1.0
176
     0
 90
        2
176
     1
  1
strokes_ogs.tif
176
     1
290
     0
176
     1
 40
1.0
176
     1
 40
1.0
176
     1
  0
VISUALSTYLE
  5
3C
102
{ACAD_REACTORS
330
2A
102
}
330
2A
100
AcDbVisualStyle
  2
OverhangOff
 70
    21
177
     3
291
     1
 70
    58
 90
        2
176
     0
 90
        2
176
     0
 90
        0
176
     0
 90
        0
176
     0
 40
0.6
176
     0
 40
30.0
176
     0
 62
     7
420
 16777215
176
     0
 90
        1
176
     0
 90
        4
176
     0
 62
     7
176
     0
 62
   257
176
     0
 90
        1
176
     0
 90
        1
176
     0
 40
1.0
176
     0
 90
        9
176
     2
 62
     7
176
     0
 40
1.0
176
     0
 90
        1
176
     0
 90
        6
176
     0
 90
        2
176
     0
 62
     7
176
     0
 90
        5
176
     0
 90
        0
176
     0
 90
        0
176
     0
290
     0
176
     0
 90
        1
176
     0
 40
0.0
176
     0
 90
        0
176
     0
290
     0
176
     0
290
     1
176
     0
290
     1
176
     0
290
     0
176
     0
290
     0
176
     0
290
     0
176
     0
290
     0
176
     0
290
     0
176
     0
290
     0
176
     0
 90
       50
176
     0
 40
0.0
176
     0
 40
1.0
176
     0
 90
        0
176
     0
 62
    18
420
        0
176
     0
 90
       50
176
     0
 90
        3
176
     0
 62
     5
420
      255
176
     0
290
     0
176
     0
 90
       50
176
     0
 90
       50
176
     0
 90
       50
176
     0
290
     0
176
     0
 90
       50
176
     0
 62
   256
176
     0
 40
1.0
176
     0
 90
        2
176
     0
  1
strokes_ogs.tif
176
     0
290
     0
176
     0
 40
1.0
176
     0
 40
1.0
176
     0
  0
VISUALSTYLE
  5
33
102
{ACAD_REACTORS
330
2A
102
}
330
2A
100
AcDbVisualStyle
  2
Realistic
 70
     8
177
     3
291
     0
 70
    58
 90
        2
176
     1
 90
        3
176
     1
 90
        0
176
     1
 90
        2
176
     1
 40
0.6
176
     1
 40
30.0
176
     1
 62
     7
420
 16777215
176
     1
 90
        0
176
     1
 90
        0
176
     1
 62
     7
176
     1
 62
   257
176
     1
 90
        1
176
     1
 90
        1
176
     1
 40
1.0
176
     1
 90
        8
176
     1
 62
   257
176
     1
 40
1.0
176
     1
 90
        1
176
     1
 90
        6
176
     1
 90
        2
176
     1
 62
     7
176
     1
 90
        3
176
     1
 90
        0
176
     1
 90
        0
176
     1
290
     0
176
     1
 90
       13
176
     1
 40
0.0
176
     1
 90
        0
176
     1
290
     0
176
     1
290
     1
176
     1
290
     1
176
     1
290
     0
176
     1
290
     0
176
     1
290
     0
176
     1
290
     0
176
     1
290
     0
176
     1
290
     0
176
     1
 90
       50
176
     1
 40
0.0
176
     1
 40
1.0
176
     1
 90
        0
176
     1
 62
    18
420
        0
176
     1
 90
       50
176
     1
 90
        3
176
     1
 62
     5
420
      255
176
     1
290
     0
176
     1
 90
       50
176
     1
 90
       50
176
     1
 90
       50
176
     1
290
     0
176
     1
 90
       50
176
     1
 62
   256
176
     0
 40
1.0
176
     0
 90
        2
176
     1
  1
strokes_ogs.tif
176
     1
290
     0
176
     1
 40
1.0
176
     1
 40
1.0
176
     1
  0
VISUALSTYLE
  5
42
102
{ACAD_REACTORS
330
2A
102
}
330
2A
100
AcDbVisualStyle
  2
Shaded
 70
    27
177
     3
291
     0
 70
    58
 90
        2
176
     1
 90
        2
176
     1
 90
        1
176
     1
 90
        2
176
     1
 40
0.6
176
     1
 40
30.0
176
     1
 62
     7
420
 16777215
176
     1
 90
        0
176
     1
 90
        4
176
     1
 62
     7
176
     1
 62
   257
176
     1
 90
        1
176
     1
 90
        1
176
     1
 40
1.0
176
     1
 90
        8
176
     1
 62
   257
176
     1
 40
1.0
176
     1
 90
        1
176
     1
 90
        6
176
     1
 90
        2
176
     1
 62
     8
420
  7895160
176
     1
 90
        3
176
     1
 90
        0
176
     1
 90
        0
176
     1
290
     0
176
     1
 90
        5
176
     1
 40
0.0
176
     1
 90
        0
176
     1
290
     0
176
     1
290
     1
176
     1
290
     1
176
     1
290
     0
176
     1
290
     0
176
     1
290
     0
176
     1
290
     0
176
     1
290
     0
176
     1
290
     0
176
     1
 90
       50
176
     1
 40
0.0
176
     1
 40
1.0
176
     1
 90
        0
176
     1
 62
    18
420
        0
176
     1
 90
       50
176
     1
 90
        3
176
     1
 62
     5
420
      255
176
     1
290
     0
176
     1
 90
       50
176
     1
 90
       50
176
     1
 90
       50
176
     1
290
     0
176
     1
 90
       50
176
     1
 62
   256
176
     0
 40
1.0
176
     0
 90
        2
176
     1
  1
strokes_ogs.tif
176
     1
290
     0
176
     1
 40
1.0
176
     1
 40
1.0
176
     1
  0
VISUALSTYLE
  5
41
102
{ACAD_REACTORS
330
2A
102
}
330
2A
100
AcDbVisualStyle
  2
Shaded with edges
 70
    26
177
     3
291
     0
 70
    58
 90
        2
176
     1
 90
        2
176
     1
 90
        1
176
     1
 90
        2
176
     1
 40
0.6
176
     1
 40
30.0
176
     1
 62
     7
420
 16777215
176
     1
 90
        1
176
     1
 90
       10
176
     1
 62
     7
176
     1
 62
   257
176
     1
 90
        2
176
     1
 90
        1
176
     1
 40
1.0
176
     1
 90
        8
176
     1
 62
   257
176
     1
 40
1.0
176
     1
 90
        1
176
     1
 90
        6
176
     1
 90
        2
176
     1
 62
     7
176
     1
 90
        3
176
     1
 90
        0
176
     1
 90
        0
176
     1
290
     0
176
     1
 90
        5
176
     1
 40
0.0
176
     1
 90
        0
176
     1
290
     0
176
     1
290
     1
176
     1
290
     1
176
     1
290
     0
176
     1
290
     0
176
     1
290
     0
176
     1
290
     0
176
     1
290
     0
176
     1
290
     0
176
     1
 90
       50
176
     1
 40
0.0
176
     1
 40
1.0
176
     1
 90
        0
176
     1
 62
    18
420
        0
176
     1
 90
       50
176
     1
 90
        3
176
     1
 62
     5
420
      255
176
     1
290
     0
176
     1
 90
       50
176
     1
 90
       50
176
     1
 90
       50
176
     1
290
     0
176
     1
 90
       50
176
     1
 62
   256
176
     0
 40
1.0
176
     0
 90
        2
176
     1
  1
strokes_ogs.tif
176
     1
290
     0
176
     1
 40
1.0
176
     1
 40
1.0
176
     1
  0
VISUALSTYLE
  5
3E
102
{ACAD_REACTORS
330
2A
102
}
330
2A
100
AcDbVisualStyle
  2
Shades of Gray
 70
    23
177
     3
291
     0
 70
    58
 90
        2
176
     1
 90
        2
176
     1
 90
        3
176
     1
 90
        0
176
     1
 40
0.6
176
     1
 40
30.0
176
     1
 62
     7
420
 16777215
176
     1
 90
        2
176
     1
 90
        2
176
     1
 62
     7
176
     1
 62
     7
176
     1
 90
        1
176
     1
 90
        1
176
     1
 40
40.0
176
     1
 90
        8
176
     1
 62
     7
176
     1
 40
1.0
176
     1
 90
        1
176
     1
 90
        6
176
     1
 90
        2
176
     1
 62
     7
176
     1
 90
        3
176
     1
 90
        0
176
     1
 90
        0
176
     1
290
     0
176
     1
 90
        1
176
     1
 40
0.0
176
     1
 90
        0
176
     1
290
     0
176
     1
290
     1
176
     1
290
     1
176
     1
290
     0
176
     1
290
     0
176
     1
290
     0
176
     1
290
     0
176
     1
290
     0
176
     1
290
     0
176
     1
 90
       50
176
     1
 40
0.0
176
     1
 40
1.0
176
     1
 90
        0
176
     1
 62
    18
420
        0
176
     1
 90
       50
176
     1
 90
        3
176
     1
 62
     5
420
      255
176
     1
290
     0
176
     1
 90
       50
176
     1
 90
       50
176
     1
 90
       50
176
     1
290
     0
176
     1
 90
       50
176
     1
 62
   256
176
     0
 40
1.0
176
     0
 90
        2
176
     1
  1
strokes_ogs.tif
176
     1
290
     0
176
     1
 40
1.0
176
     1
 40
1.0
176
     1
  0
VISUALSTYLE
  5
3F
102
{ACAD_REACTORS
330
2A
102
}
330
2A
100
AcDbVisualStyle
  2
Sketchy
 70
    24
177
     3
291
     0
 70
    58
 90
        1
176
     1
 90
        2
176
     1
 90
        2
176
     1
 90
        0
176
     1
 40
0.6
176
     1
 40
30.0
176
     1
 62
     7
420
 16777215
176
     1
 90
        2
176
     1
 90
        2
176
     1
 62
     7
176
     1
 62
     7
176
     1
 90
        1
176
     1
 90
        1
176
     1
 40
40.0
176
     1
 90
       11
176
     1
 62
     7
176
     1
 40
1.0
176
     1
 90
        1
176
     1
 90
        6
176
     1
 90
        2
176
     1
 62
     7
176
     1
 90
        6
176
     1
 90
        0
176
     1
 90
        0
176
     1
290
     0
176
     1
 90
        1
176
     1
 40
0.0
176
     1
 90
        0
176
     1
290
     0
176
     1
290
     1
176
     1
290
     1
176
     1
290
     0
176
     1
290
     0
176
     1
290
     0
176
     1
290
     0
176
     1
290
     0
176
     1
290
     0
176
     1
 90
       50
176
     1
 40
0.0
176
     1
 40
1.0
176
     1
 90
        0
176
     1
 62
    18
420
        0
176
     1
 90
       50
176
     1
 90
        3
176
     1
 62
     5
420
      255
176
     1
290
     0
176
     1
 90
       50
176
     1
 90
       50
176
     1
 90
       50
176
     1
290
     0
176
     1
 90
       50
176
     1
 62
   256
176
     0
 40
1.0
176
     0
 90
        2
176
     1
  1
strokes_ogs.tif
176
     1
290
     0
176
     1
 40
1.0
176
     1
 40
1.0
176
     1
  0
VISUALSTYLE
  5
37
102
{ACAD_REACTORS
330
2A
102
}
330
2A
100
AcDbVisualStyle
  2
Thicken
 70
    13
177
     3
291
     1
 70
    58
 90
        2
176
     1
 90
        2
176
     1
 90
        0
176
     1
 90
        0
176
     1
 40
0.6
176
     1
 40
30.0
176
     1
 62
     7
420
 16777215
176
     1
 90
        1
176
     1
 90
        4
176
     1
 62
     7
176
     1
 62
   257
176
     1
 90
        1
176
     1
 90
        1
176
     1
 40
1.0
176
     1
 90
       12
176
     1
 62
     7
176
     1
 40
1.0
176
     1
 90
        1
176
     1
 90
        6
176
     1
 90
        2
176
     1
 62
     7
176
     1
 90
        5
176
     1
 90
        0
176
     1
 90
        0
176
     1
290
     0
176
     1
 90
        1
176
     1
 40
0.0
176
     1
 90
        0
176
     1
290
     0
176
     1
290
     1
176
     1
290
     1
176
     1
290
     0
176
     1
290
     0
176
     1
290
     0
176
     1
290
     0
176
     1
290
     0
176
     1
290
     0
176
     1
 90
       50
176
     1
 40
0.0
176
     1
 40
1.0
176
     1
 90
        0
176
     1
 62
    18
420
        0
176
     1
 90
       50
176
     1
 90
        3
176
     1
 62
     5
420
      255
176
     1
290
     0
176
     1
 90
       50
176
     1
 90
       50
176
     1
 90
       50
176
     1
290
     0
176
     1
 90
       50
176
     1
 62
   256
176
     0
 40
1.0
176
     0
 90
        2
176
     1
  1
strokes_ogs.tif
176
     1
290
     0
176
     1
 40
1.0
176
     1
 40
1.0
176
     1
  0
VISUALSTYLE
  5
30
102
{ACAD_REACTORS
330
2A
102
}
330
2A
100
AcDbVisualStyle
  2
Wireframe
 70
     5
177
     3
291
     0
 70
    58
 90
        0
176
     1
 90
        2
176
     1
 90
        0
176
     1
 90
        0
176
     1
 40
0.6
176
     1
 40
30.0
176
     1
 62
     7
420
 16777215
176
     1
 90
        1
176
     1
 90
        4
176
     1
 62
     7
176
     1
 62
   257
176
     1
 90
        1
176
     1
 90
        1
176
     1
 40
1.0
176
     1
 90
        0
176
     1
 62
   257
176
     1
 40
1.0
176
     1
 90
        1
176
     1
 90
        6
176
     1
 90
        2
176
     1
 62
     7
176
     1
 90
        3
176
     1
 90
        0
176
     1
 90
        0
176
     1
290
     0
176
     1
 90
        1
176
     1
 40
0.0
176
     1
 90
        0
176
     1
290
     0
176
     1
290
     1
176
     1
290
     1
176
     1
290
     0
176
     1
290
     0
176
     1
290
     0
176
     1
290
     0
176
     1
290
     0
176
     1
290
     0
176
     1
 90
       50
176
     1
 40
0.0
176
     1
 40
1.0
176
     1
 90
        0
176
     1
 62
    18
420
        0
176
     1
 90
       50
176
     1
 90
        3
176
     1
 62
     5
420
      255
176
     1
290
     0
176
     1
 90
       50
176
     1
 90
       50
176
     1
 90
       50
176
     1
290
     0
176
     1
 90
       50
176
     1
 62
   256
176
     0
 40
1.0
176
     0
 90
        2
176
     1
  1
strokes_ogs.tif
176
     1
290
     0
176
     1
 40
1.0
176
     1
 40
1.0
176
     1
  0
VISUALSTYLE
  5
40
102
{ACAD_REACTORS
330
2A
102
}
330
2A
100
AcDbVisualStyle
  2
X-Ray
 70
    25
177
     3
291
     0
 70
    58
 90
        2
176
     1
 90
        2
176
     1
 90
        1
176
     1
 90
        1
176
     1
 40
0.5
176
     1
 40
30.0
176
     1
 62
     7
420
 16777215
176
     1
 90
        1
176
     1
 90
        0
176
     1
 62
     7
176
     1
 62
   257
176
     1
 90
        1
176
     1
 90
        1
176
     1
 40
1.0
176
     1
 90
        8
176
     1
 62
     7
176
     1
 40
1.0
176
     1
 90
        1
176
     1
 90
        6
176
     1
 90
        2
176
     1
 62
     7
176
     1
 90
        3
176
     1
 90
        0
176
     1
 90
        0
176
     1
290
     0
176
     1
 90
       13
176
     1
 40
0.0
176
     1
 90
        0
176
     1
290
     0
176
     1
290
     1
176
     1
290
     1
176
     1
290
     0
176
     1
290
     0
176
     1
290
     0
176
     1
290
     0
176
     1
290
     0
176
     1
290
     0
176
     1
 90
       50
176
     1
 40
0.0
176
     1
 40
1.0
176
     1
 90
        0
176
     1
 62
    18
420
        0
176
     1
 90
       50
176
     1
 90
        3
176
     1
 62
     5
420
      255
176
     1
290
     0
176
     1
 90
       50
176
     1
 90
       50
176
     1
 90
       50
176
     1
290
     0
176
     1
 90
       50
176
     1
 62
   256
176
     0
 40
1.0
176
     0
 90
        2
176
     1
  1
strokes_ogs.tif
176
     1
290
     0
176
     1
 40
1.0
176
     1
 40
1.0
176
     1
  0
DICTIONARYVAR
  5
19E
102
{ACAD_REACTORS
330
19D
102
}
330
19D
100
DictionaryVariables
280
     0
  1
1:1
  0
DICTIONARYVAR
  5
1A3
102
{ACAD_REACTORS
330
19D
102
}
330
19D
100
DictionaryVariables
280
     0
  1
Standard
  0
DICTIONARYVAR
  5
1A2
102
{ACAD_REACTORS
330
19D
102
}
330
19D
100
DictionaryVariables
280
     0
  1
Standard
  0
DICTIONARY
  5
19F
330
6A
100
AcDbDictionary
280
     1
281
     1
  3
ACAD_ROUNDTRIP_2008_TABLESTYLE_CELLSTYLEMAP
360
1A0
  0
CELLSTYLEMAP
  5
1A0
102
{ACAD_REACTORS
330
19F
102
}
330
19F
100
AcDbCellStyleMap
 90
        3
300
CELLSTYLE
  1
TABLEFORMAT_BEGIN
 90
        5
170
     1
 91
        0
 92
    32768
 62
   257
 93
        1
300
CONTENTFORMAT
  1
CONTENTFORMAT_BEGIN
 90
        0
 91
        0
 92
        4
 93
        0
300

 40
0.0
140
1.0
 94
        5
 62
     0
340
11
144
0.25
309
CONTENTFORMAT_END
171
     1
301
MARGIN
  1
CELLMARGIN_BEGIN
 40
0.06
 40
0.06
 40
0.06
 40
0.06
 40
0.06
 40
0.06
309
CELLMARGIN_END
 94
        6
 95
        1
302
GRIDFORMAT
  1
GRIDFORMAT_BEGIN
 90
        0
 91
        1
 62
     0
 92
       -2
340
14
 93
        0
 40
0.045
309
GRIDFORMAT_END
 95
        2
302
GRIDFORMAT
  1
GRIDFORMAT_BEGIN
 90
        0
 91
        1
 62
     0
 92
       -2
340
14
 93
        0
 40
0.045
309
GRIDFORMAT_END
 95
        4
302
GRIDFORMAT
  1
GRIDFORMAT_BEGIN
 90
        0
 91
        1
 62
     0
 92
       -2
340
14
 93
        0
 40
0.045
309
GRIDFORMAT_END
 95
        8
302
GRIDFORMAT
  1
GRIDFORMAT_BEGIN
 90
        0
 91
        1
 62
     0
 92
       -2
340
14
 93
        0
 40
0.045
309
GRIDFORMAT_END
 95
       16
302
GRIDFORMAT
  1
GRIDFORMAT_BEGIN
 90
        0
 91
        1
 62
     0
 92
       -2
340
14
 93
        0
 40
0.045
309
GRIDFORMAT_END
 95
       32
302
GRIDFORMAT
  1
GRIDFORMAT_BEGIN
 90
        0
 91
        1
 62
     0
 92
       -2
340
14
 93
        0
 40
0.045
309
GRIDFORMAT_END
309
TABLEFORMAT_END
  1
CELLSTYLE_BEGIN
 90
        1
 91
        1
300
_TITLE
309
CELLSTYLE_END
300
CELLSTYLE
  1
TABLEFORMAT_BEGIN
 90
        5
170
     1
 91
        0
 92
        0
 62
   257
 93
        1
300
CONTENTFORMAT
  1
CONTENTFORMAT_BEGIN
 90
        0
 91
        0
 92
        4
 93
        0
300

 40
0.0
140
1.0
 94
        5
 62
     0
340
11
144
0.18
309
CONTENTFORMAT_END
171
     1
301
MARGIN
  1
CELLMARGIN_BEGIN
 40
0.06
 40
0.06
 40
0.06
 40
0.06
 40
0.06
 40
0.06
309
CELLMARGIN_END
 94
        6
 95
        1
302
GRIDFORMAT
  1
GRIDFORMAT_BEGIN
 90
        0
 91
        1
 62
     0
 92
       -2
340
14
 93
        0
 40
0.045
309
GRIDFORMAT_END
 95
        2
302
GRIDFORMAT
  1
GRIDFORMAT_BEGIN
 90
        0
 91
        1
 62
     0
 92
       -2
340
14
 93
        0
 40
0.045
309
GRIDFORMAT_END
 95
        4
302
GRIDFORMAT
  1
GRIDFORMAT_BEGIN
 90
        0
 91
        1
 62
     0
 92
       -2
340
14
 93
        0
 40
0.045
309
GRIDFORMAT_END
 95
        8
302
GRIDFORMAT
  1
GRIDFORMAT_BEGIN
 90
        0
 91
        1
 62
     0
 92
       -2
340
14
 93
        0
 40
0.045
309
GRIDFORMAT_END
 95
       16
302
GRIDFORMAT
  1
GRIDFORMAT_BEGIN
 90
        0
 91
        1
 62
     0
 92
       -2
340
14
 93
        0
 40
0.045
309
GRIDFORMAT_END
 95
       32
302
GRIDFORMAT
  1
GRIDFORMAT_BEGIN
 90
        0
 91
        1
 62
     0
 92
       -2
340
14
 93
        0
 40
0.045
309
GRIDFORMAT_END
309
TABLEFORMAT_END
  1
CELLSTYLE_BEGIN
 90
        2
 91
        1
300
_HEADER
309
CELLSTYLE_END
300
CELLSTYLE
  1
TABLEFORMAT_BEGIN
 90
        5
170
     1
 91
        0
 92
        0
 62
   257
 93
        1
300
CONTENTFORMAT
  1
CONTENTFORMAT_BEGIN
 90
        0
 91
        0
 92
        4
 93
        0
300

 40
0.0
140
1.0
 94
        2
 62
     0
340
11
144
0.18
309
CONTENTFORMAT_END
171
     1
301
MARGIN
  1
CELLMARGIN_BEGIN
 40
0.06
 40
0.06
 40
0.06
 40
0.06
 40
0.06
 40
0.06
309
CELLMARGIN_END
 94
        6
 95
        1
302
GRIDFORMAT
  1
GRIDFORMAT_BEGIN
 90
        0
 91
        1
 62
     0
 92
       -2
340
14
 93
        0
 40
0.045
309
GRIDFORMAT_END
 95
        2
302
GRIDFORMAT
  1
GRIDFORMAT_BEGIN
 90
        0
 91
        1
 62
     0
 92
       -2
340
14
 93
        0
 40
0.045
309
GRIDFORMAT_END
 95
        4
302
GRIDFORMAT
  1
GRIDFORMAT_BEGIN
 90
        0
 91
        1
 62
     0
 92
       -2
340
14
 93
        0
 40
0.045
309
GRIDFORMAT_END
 95
        8
302
GRIDFORMAT
  1
GRIDFORMAT_BEGIN
 90
        0
 91
        1
 62
     0
 92
       -2
340
14
 93
        0
 40
0.045
309
GRIDFORMAT_END
 95
       16
302
GRIDFORMAT
  1
GRIDFORMAT_BEGIN
 90
        0
 91
        1
 62
     0
 92
       -2
340
14
 93
        0
 40
0.045
309
GRIDFORMAT_END
 95
       32
302
GRIDFORMAT
  1
GRIDFORMAT_BEGIN
 90
        0
 91
        1
 62
     0
 92
       -2
340
14
 93
        0
 40
0.045
309
GRIDFORMAT_END
309
TABLEFORMAT_END
  1
CELLSTYLE_BEGIN
 90
        3
 91
        2
300
_DATA
309
CELLSTYLE_END
  0
ENDSEC
  0
EOF
